<?xml version="1.0" encoding="UTF-8"?>
<svg id="Layer_1" data-name="Layer 1" xmlns="http://www.w3.org/2000/svg" xmlns:xlink="http://www.w3.org/1999/xlink" viewBox="0 0 986 516">
  <defs>
    <style>
      .cls-1 {
        fill: #ffffff;
      }

      .cls-2 {
        clip-path: url(#clippath);
      }

      .cls-3 {
        fill: #fff;
      }
    </style>
    <clipPath id="clippath">
      <rect class="cls-1" x="312.05" y="-174.63" width="361.91" height="865.27" transform="translate(235 751) rotate(-90)"/>
    </clipPath>
  </defs>
  <g class="cls-2">
    <g>
      <path d="m824.87,981.11c-1.44-12.52-2.49-25.19-4.38-37.55-6.71-43.79-16.87-85.9-27.17-127.93-11.03-44.99-23.83-88.8-37.35-132.15-3.15-10.11-5.92-20.59-8.18-31.23-3.57-16.8-.89-24.63,9.93-31.15,8.53-5.14,17.5-7.68,26.53-9.48,16.54-3.3,33.14-5.85,49.66-9.29,14.84-3.09,29.38-8.22,42.83-18.75,19.3-15.11,32.14-38.23,36.78-70.97,2.92-20.63.84-40.42-5.02-59.42-4.25-13.79-9.86-26.28-15.63-38.64-2.9-6.22-5.79-12.47-8.64-18.74-6.9-15.14-11.86-31.5-13.08-50.06-1.1-16.61-5.53-30.97-12.61-43.4-18.74-32.92-34.81-68.86-51.29-104.35-16.35-35.2-35.67-66.39-56.45-95.56-5.7-7.99-11.17-16.36-16.62-24.76-8.57-13.21-14.64-28.78-18.96-46.15-2.91-11.67-6.46-22.96-9.71-34.42-1.35-4.78-2.82-9.5-3.98-14.39-2.02-8.54-1.56-16.99,1.45-24.79,2.19-5.67,4.67-11.11,7.26-16.38,3.45-7.05,7.12-13.85,10.71-20.75,12.47-24.02,14.54-50.42,7.88-78.9-7.58-32.41-22.62-53.08-43.6-64.28-6.09-3.25-12.34-5.79-18.46-8.91-2.5-1.28-4.96-2.94-7.26-4.93-3.73-3.23-5.52-8.41-5.63-14.94-.12-7.38,1.33-14.2,3.4-20.7,6.73-21.09,16.34-38.66,28.36-53.19,15.47-18.69,33.05-31.42,51.45-41.73,5.49-3.07,11-6.02,16.49-9.09,6.06-3.39,9.62-9.75,10.13-19.8.21-4.14.59-8.25.91-12.61h60.94c-.79,10.08-1.91,19.9-6.88,26.96-3.62,5.14-7.78,9.67-12.13,13.29-10.01,8.34-21.04,12.5-32.06,16.58-9.81,3.63-19.71,6.84-29.4,11.16-12.56,5.59-24.34,13.99-34.3,27.23-2.94,3.9-5.57,8.59-7.72,13.56-4.58,10.61-4.5,21.93,0,32.4,3.35,7.79,7.35,15.02,11.48,21.93,8.8,14.72,17.98,28.91,25.62,45.16,9.79,20.83,17.24,43.34,20.95,68.47,3.31,22.43,1.33,43.76-6.15,63.76-3.01,8.05-6.13,16-9.42,23.79-6.73,15.95-8.78,33.13-7.85,52.04,1.68,34.23,10.4,63.34,24.94,89.07,11.59,20.53,23.28,40.99,34.11,62.43,11.42,22.62,22.03,46.22,32.72,69.68,10.43,22.88,21.85,44.42,34.83,64.06,3.61,5.46,6.99,11.27,10.4,17.02,6.33,10.68,10.21,23.21,11.69,37.38,1.86,17.82,6.47,33.84,12.98,48.81,5.03,11.57,10.03,23.2,14.57,35.22,5.65,14.94,9.44,31.03,10.7,48.28,1.48,20.29-1.15,39.57-6.61,58.06-8.88,30.04-24.09,49.94-43.56,62.95-13.98,9.34-28.75,14.32-43.63,18.91-13.22,4.08-26.42,8.44-39.52,13.35-4.12,1.54-8.05,4.84-11.81,8.02-6.7,5.67-9.42,14.72-7.73,26.08,1.35,9.11,2.95,18.24,5.16,26.95,9.98,39.39,20.34,78.55,30.33,117.93,11.12,43.8,21.73,87.89,29.61,133.36,2.03,11.73,3.54,23.66,5.29,35.5-5.77,0-11.55,0-17.32,0Z"/>
      <path d="m857.23,981.11c-.39-3.62-.64-7.29-1.2-10.85-6.41-40.68-15.37-80.15-24.61-119.48-9.34-39.76-18.94-79.38-28.12-119.23-2.68-11.64-4.73-23.73-6.3-35.84-2.54-19.6,1.41-31.69,12.76-41.8,8.66-7.72,18.18-12.2,27.67-16.77,14.04-6.76,28.06-13.55,41.27-23.67,16-12.26,29.98-28.23,39.84-51.45,10.89-25.66,16.67-53.66,15.15-84.46-1.17-23.7-6.25-45.61-14.21-66-1.55-3.98-3.05-8.01-4.68-11.91-6.47-15.45-11.31-31.91-13.95-49.87-2.42-16.51-7.9-30.46-15.87-42.15-5.09-7.47-10.23-14.85-15.41-22.17-11.67-16.45-21.78-34.89-30.07-55.54-14.6-36.38-30.9-70.96-47.11-105.66-6.83-14.62-13.2-29.71-18.3-45.97-9.12-29.04-9.76-58.15-.44-87.38,3.45-10.83,6.98-21.6,10.36-32.49,6.61-21.3,8.95-43.61,6.68-66.99-1.13-11.64-3.35-22.79-6.18-33.71-6.42-24.79-15.11-47.69-24.61-69.98-4.55-10.66-8.93-21.56-12.73-32.87-2.36-7.01-3.98-14.82-5.07-22.55-1.92-13.58,1.15-25,8.79-32.48,4.67-4.57,9.88-8.27,15.17-10.86,8.59-4.22,17.44-7.2,26.18-10.72,12.19-4.91,23.95-11.29,34.21-22.91,8.96-10.15,16.28-22.58,21.86-37.3,1.51-3.98,2.7-8.31,3.7-12.66,1-4.35,1.58-8.92,2.4-13.69h18.46c-.77,4.9-1.31,9.57-2.23,14.07-4.46,22-10.62,42.83-18.69,62.34-8.61,20.8-20.56,35.35-35.49,44.41-6.42,3.9-12.87,7.7-19.22,11.86-2.7,1.77-5.3,4.09-7.71,6.66-6.06,6.46-8.96,15.59-7.88,26.71.74,7.6,1.97,15.3,3.94,22.35,3.38,12.13,7.54,23.74,11.3,35.63,5.34,16.89,10.89,33.65,15.85,50.79,11.99,41.44,12.01,83.34,1.15,125.33-2.42,9.37-5,18.66-7.74,27.82-8.79,29.38-7.95,58.55.24,87.86,6.56,23.46,15.11,45.13,24.62,65.98,6.28,13.78,12.95,27.17,19.11,41.07,4.5,10.15,8.84,20.54,12.56,31.38,5.63,16.4,13.35,30.01,22.25,42.28,3.66,5.05,7.28,10.17,10.99,15.14,10.25,13.74,17.32,30.53,21,50.61,2.73,14.88,6.74,28.96,11.55,42.53,5.53,15.61,10.17,31.73,12.34,49.32,6.35,51.27-1.52,97.24-22.51,138-11.15,21.65-25.8,37.04-41.34,50.49-9.77,8.45-19.73,16.38-29.48,24.88-3.87,3.38-7.54,7.39-11.05,11.61-10.07,12.11-14.55,28.05-13.46,47.58.9,16.14,3.5,31.77,6.74,47.08,8.17,38.65,16.65,77.14,24.97,115.72,6.84,31.75,13.6,63.55,18.66,96.11.19,1.22.21,2.51.31,3.77-5.47,0-10.94,0-16.41,0Z"/>
      <path d="m887.77,981.11c-.12-1.7-.13-3.44-.37-5.1-5.29-36.09-12.67-71.28-19.58-106.68-5.78-29.62-11.42-59.32-16.8-89.12-1.73-9.56-2.58-19.51-3.58-29.34-3.15-31.13,3.06-57.25,18.69-77.79,9.54-12.54,19.47-24.41,29.18-36.66,12.39-15.63,24.08-32.34,32.94-53.01,14.13-32.98,21.52-69.28,23.31-108.58,1.12-24.64-1.69-47.84-7.85-70.5-4.88-17.95-9.42-36.14-13.78-54.4-4.32-18.08-10.99-33.68-19.74-47.42-3.43-5.39-6.63-11.15-9.73-16.98-2.44-4.59-3.86-10.02-3.93-16-.09-7.4-2.05-13.49-5.39-18.57-4.89-7.44-9.92-14.66-14.86-22.03-13.88-20.71-25.89-43.57-34.59-70.21-10.25-31.39-13.11-64-7.07-98.17,3.46-19.56,6.77-39.19,10.04-58.82,4.58-27.49,5.88-55.25,2.61-83.33-1.59-13.63-4.31-26.75-7.71-39.55-4.24-15.99-8.65-31.89-12.81-47.93-2.12-8.17-3.96-16.52-5.77-24.87-.71-3.28-1.08-6.75-1.45-10.17-1.47-13.73,1.21-25.17,8.36-33.96,3.19-3.92,6.41-7.82,9.75-11.44,12.26-13.29,21.2-30.63,27.36-51.45,7.69-25.97,12.8-53.24,17.53-80.69,1.5-8.72,2.7-17.57,4.08-26.63h13.26c-.43,4.21-.78,8.28-1.25,12.31-4.23,36.35-8.32,72.75-12.77,109.04-3.14,25.63-8.66,50.13-16.41,73.41-.62,1.86-1.13,3.8-1.77,5.64-7.08,20.2-8.3,41.38-4.49,63.35,2.68,15.44,5.33,30.91,8.24,46.25,6.18,32.58,6.83,65.54,4.35,99.1-2.84,38.33-6.84,76.39-10.5,114.53-2.07,21.6-1.34,42.98,4.56,63.4,6.5,22.51,16.98,39.91,30.03,53.82,7.02,7.49,14.48,14.03,21.63,21.25,3.21,3.24,6.35,6.79,9.17,10.78,3.21,4.54,3.43,9.18,1.42,15.13-.28.82-.55,1.66-.9,2.41-3.51,7.39-3.65,15.18-.69,22.84,9.6,24.88,15.74,52.1,23.19,78.44.29,1.03.72,1.97,1.08,2.95v143.13c-2.28,7.27-4.8,14.39-6.79,21.84-7.58,28.46-17.83,54.36-31.18,77.4-8.6,14.83-17.14,29.73-25.63,44.71-15.37,27.1-22.44,58.3-20.17,94.26,1.21,19.19,3.55,38.03,6.49,56.73,8.23,52.31,18.89,103.7,25.33,156.68h-15.04Z"/>
      <path d="m789.78,981.11c-.06-6.36,0-12.72-.21-19.07-.91-27.57-4.94-54.3-9.51-80.87-12.07-70.24-29.47-137.15-53.23-200.21-5.5-14.61-9.99-30.15-14.52-45.55-1.68-5.7-2.44-12.17-3.04-18.42-.85-8.9,1.79-15.45,6.98-19.62,5.38-4.32,11.17-6.88,17.13-7.96,13.33-2.42,26.69-4.76,40.08-6.27,19.3-2.17,38.69-2.66,57.87-7.1,14.06-3.26,27.68-8.71,39.75-20.77,11.82-11.81,19.56-27.9,21.52-49.65,1.38-15.29-.84-29.68-5.11-43.47-4.47-14.44-10.67-27.18-16.86-39.94-3.66-7.54-7.3-15.09-10.9-22.7-9.56-20.17-16.07-42.11-17.37-67.3-.73-14.04-3.76-27.15-8.24-39.42-13.86-37.94-28.67-74.93-46.7-108.71-15.81-29.61-34.55-54.29-55.14-75.77-10.77-11.24-21.75-22.04-32.62-33.07-9.42-9.56-17.88-20.76-24.94-34.29-6-11.51-13.39-20.42-21.79-27.51-4.39-3.7-8.81-7.32-13.05-11.39-9.48-9.12-10.83-17.87-5.16-32.62,4.64-12.09,10.96-22.14,17.11-32.41,5.73-9.57,11.57-19.03,16.98-29.01,5.37-9.9,9.44-21.02,10.96-33.92,2.66-22.55-4.5-38.54-19.21-42.84-1.56-.46-3.15-.76-4.74-.94-10.54-1.19-20.84,1.31-30.77,6.24-16.16,8.03-32.13,16.96-48.19,25.46-5.02,2.66-10.05,5.27-15.13,7.68-1.79.85-3.71,1.3-5.59,1.48-2.69.24-3.78-1.92-2.72-5.65.96-3.37,2.09-6.78,3.59-9.6,7.52-14.1,15-28.27,22.85-41.93,15.9-27.66,29.71-57.69,43.81-87.46,9.76-20.62,20.51-40.2,31.28-59.64,11.45-20.66,25.73-36.2,41.04-49.63,1.84-1.62,3.66-3.31,5.49-4.96,3.49-3.13,5.31-7.76,5.45-13.95.05-2.17.21-4.34.33-6.68h22.85c1.99,10.06-1.21,22.26-7.23,26.92-6.02,4.67-12.17,8.98-18.22,13.56-23.22,17.55-41.66,43.55-57.51,74.45-12.87,25.1-23.9,51.91-33.68,79.98-1.17,3.36-2.17,6.91-2.95,10.52-2.23,10.22-.13,14.76,6.88,14.33,4.38-.27,8.76-1.29,13.11-2.35,10.28-2.5,20.55-5.49,31-4.9,5.35.3,10.83,1.04,15.98,3.15,27.57,11.29,32.57,49.8,27.29,75.84-2.55,12.55-7.2,23.2-12.84,32.89-5.14,8.83-10.59,17.25-15.68,26.14-3.03,5.3-5.94,10.89-8.37,16.85-4.39,10.74-3.9,19.04,1.46,28.63,2.7,4.84,5.69,9.32,8.71,13.71,6.76,9.82,12.61,20.69,16.93,33.37,7.48,21.94,19.26,37.79,31.65,53.01,13.65,16.77,27.26,33.7,40.26,51.63,16.74,23.08,30.56,50.16,43.35,78.44,11.55,25.53,22.97,51.18,34.64,76.58,6.99,15.22,11.53,31.61,12.56,50.3.94,17.14,5.37,32.51,11.69,46.54,6.02,13.36,12.59,26.13,18.5,39.6,4.38,9.97,8.76,20.17,11.94,31.08,10.94,37.52,3.43,77.64-18.46,101.57-11.21,12.26-23.95,18.86-37.31,22.94-14.78,4.52-29.8,5.98-44.79,7.71-16.13,1.86-32.32,3.02-48.22,7.84-5.25,1.59-10.51,3.87-15.46,6.96-7.54,4.69-9.94,12.09-8,24.22,1.21,7.6,2.84,15.2,5.05,22.25,5.82,18.59,12.04,36.89,18.13,55.3,23.03,69.68,40.45,142.54,52.68,218.24,2.3,14.22,3.19,28.97,4.64,43.49.28,2.83.14,5.76.19,8.64h-18.23Z"/>
      <path d="m284.33,981.11c.03-1.14.16-2.3.09-3.43-2.23-36.33,4.8-68.3,19.43-96.79,8.59-16.74,18.25-31.96,28.27-46.65,19.89-29.18,38.36-60.36,56.2-92.43,2.59-4.66,4.91-9.74,7.02-14.94,1.3-3.19,2.24-6.86,2.85-10.51.8-4.79-.35-8.83-3.37-10.52-3.22-1.8-6.75-3.39-10.13-3.29-9.1.25-18.21.97-27.26,2.37-17.76,2.75-35.46,6.31-53.36,6.12-24.9-.26-48.79-7.15-71.04-24.86-30.04-23.93-50.27-61.09-62.56-108.76-6.57-25.48-10.2-51.99-11.56-79.27-1.72-34.41.38-68.43,4.43-102.24,3.11-25.94,6.55-51.79,9.49-77.78,1.97-17.39,2.29-34.99,1.38-52.63-.86-16.75-3.75-32.55-9.13-47.27-5.62-15.39-10.84-31.04-14.96-47.56-6.85-27.49-5.07-53.4,5.62-77.81,2.65-6.05,5.49-11.97,8.54-17.56,9.57-17.49,21.25-31.37,33.42-44.33,14.25-15.19,28.65-30.08,42.87-45.34,5.02-5.39,9.77-11.39,14.55-17.29,9.87-12.18,17.8-26.79,23.6-44.08,9.47-28.23,16.87-57.68,22.78-88.08,5.04-25.93,1.14-47.76-12.15-65.62-7.06-9.5-14.42-18.5-21.32-28.26-7.56-10.69-15.03-21.6-22.05-33.11-14.84-24.31-20.13-53.33-17-86.01,1.01-10.52,2.35-20.97,3.54-31.5h25.85c-.09,2.14-.22,4.06-.25,5.98-.16,13.07-.57,26.14-.4,39.2.32,24.6,6.48,45.91,17.36,63.7,9.57,15.65,19.81,30.35,29.75,45.48,4.4,6.71,8.91,13.27,13.13,20.24,2.35,3.89,4.4,8.29,6.25,12.78,4.92,12,6.01,24.91,2.94,38.3-1.45,6.32-3.24,12.49-5.19,18.49-9.02,27.81-18.22,55.48-27.22,83.31-12.26,37.91-17.41,47.74-39.94,72.61-15.32,16.91-30.94,33.16-46.32,49.93-9.34,10.18-18.4,20.99-26.12,34.01-4.05,6.83-7.87,14.18-11.02,22.02-6.68,16.6-6.75,34.02-1.1,51.39,1.85,5.69,3.82,11.43,6.33,16.46,10.83,21.72,13.48,46.21,12.33,72.86-1.94,44.88-6.81,88.89-14.14,132.4-4.57,27.14-7.76,54.71-8.75,82.78-1.54,43.74,1.96,86.28,14.13,126.37,18.06,59.52,48.73,94.74,90.73,107.27,20.17,6.02,40.51,5.39,60.82,1.74,15.31-2.75,30.56-6.22,45.88-8.87,10.12-1.75,20.31-2.21,30.45.24,2.09.51,4.19,1.23,6.19,2.29,6.46,3.42,8.42,9.7,5.63,19.25-1.53,5.23-3.45,10.44-5.87,14.78-7.32,13.14-14.85,26.02-22.53,38.68-21.86,36.04-43.89,71.85-65.75,107.9-6.92,11.41-13.13,23.71-18.31,37.15-8.89,23.1-13.05,47.96-11.82,74.79.09,1.96.1,3.93.14,5.89h-11.39Z"/>
      <path d="m263.37,981.11c-1.77-18.91-1.19-37.63,1.89-56.16,3.57-21.5,10.87-40,20.53-56.18,9.56-15.99,19.81-31.01,29.58-46.72,6.78-10.91,13.47-21.99,19.77-33.54,2.66-4.88,4.61-10.93,6.19-16.87,2.33-8.74.3-14.55-5.61-17.46-7.25-3.57-14.82-3.68-22.32-4.28-18.83-1.52-37.58-3.79-55.9-11.13-21.59-8.64-41.52-22.25-58.31-45.21-15.01-20.52-25.89-45.59-34.22-73.35-9.54-31.78-15.47-65.12-18.38-99.77-2.67-31.84-2.5-63.72-.98-95.66.93-19.51,1.84-39.03,2.5-58.56.53-15.6-.26-31.17-3.85-45.9-7.54-30.96-11.96-63.11-16.31-95.32-2.08-15.41-4.54-30.7-6.38-46.17-4.14-34.82,1.01-67.15,12.19-97.54,9.41-25.57,22.59-46.18,37.82-63.67,12.07-13.85,24.61-26.75,36.81-40.35,11.61-12.95,22.66-26.9,31.71-44.15,10.03-19.14,15.88-40.94,17.61-65.27,1.82-25.55-3.71-47.37-15.34-65.43-7.65-11.88-15.86-22.94-23.95-34.15-12.89-17.87-25.42-36.22-35.73-57.78-2.14-4.49-4.1-9.19-6.05-13.88-7.87-18.92-9.68-39.34-6.52-61.05,2.19-15.06,6.2-29.02,10.68-42.73.19-.58.72-1.27,1.09-1.28,8.57-.07,17.15-.06,26.06-.06-.33,1.69-.54,3-.84,4.25-3.02,12.28-5.39,24.82-6.75,37.81-2.6,24.92.94,47.55,10.41,68.21,7.28,15.86,15.97,29.74,25.36,42.61,8.3,11.38,16.84,22.35,25.22,33.6,2.68,3.59,5.25,7.39,7.72,11.3,8.69,13.72,13.09,30.18,12.1,49.22-2.02,38.93-10.28,74.4-26.83,104.66-8.52,15.57-19.08,27.85-29.86,39.54-14.41,15.64-29.14,30.6-43.48,46.38-15.1,16.61-28.16,36.35-37.68,61.03-7.33,19-11.83,39.28-11.18,61.65.41,14.2,2.6,27.91,5.14,41.51,4.77,25.53,10.21,50.67,18.11,74.44,6.35,19.11,7.94,39.63,6.48,60.56-1.59,22.74-3.89,45.37-5.95,68.04-2.5,27.52-4.52,55.11-4.15,82.95.66,50.12,7.46,97.95,23.96,141.78,20.98,55.75,52.44,89.56,93.68,102.38,17.52,5.45,35.24,6.36,53.04,5.04,11.45-.85,22.91-1.75,34.36-2.18,3.52-.13,7.14.71,10.56,2.03,4.87,1.87,6.62,6.88,4.76,14.03-1.47,5.64-3.45,11.12-5.77,16.05-9.85,20.94-21.2,39.92-33.28,57.93-10.96,16.35-22.01,32.6-32.57,49.56-10.1,16.24-18.35,34.53-22.79,56.22-3.67,17.89-4.95,36.16-3.54,54.83.1,1.38.09,2.78.13,4.16h-10.94Z"/>
      <path d="m306.67,981.11c-1.3-16.89-.25-33.43,2.95-49.72,4.19-21.33,11.61-39.97,20.87-56.85,9.3-16.95,19.08-33.3,28.72-49.82,11.81-20.24,23.59-40.53,35.59-60.51,9.28-15.45,19.06-30.22,28.26-45.78,4.39-7.43,8.46-15.54,11.8-24.13,5.2-13.36,2.75-22.14-6.86-27.39-7.8-4.26-15.98-5.3-24.16-6.17-21.97-2.33-43.66,1.77-65.32,6.66-15.19,3.43-30.43,6.06-45.83,5.11-26.6-1.65-51.41-11.73-72.92-36.78-18.92-22.03-31.03-51.31-38.39-85.42-6.57-30.44-8.75-61.76-7.96-93.72.88-35.62,6.05-70,12.22-104.13,5.08-28.09,8.51-56.69,11.75-85.37,2.24-19.81,5.04-39.47,7.39-59.25,1-8.41,1.7-16.93,2.15-25.45.75-14.03-1.43-27.11-6.22-39.19-1.93-4.85-3.8-9.76-5.56-14.75-5.2-14.71-4.54-28.84,1.86-42.44,4.91-10.45,10.79-19.54,17.41-27.33,13.33-15.71,26.97-30.82,40.41-46.33,8.35-9.64,16.63-19.44,24.81-29.42,5.5-6.71,10.05-14.87,13.45-24.28,5.09-14.08,10.2-28.16,14.85-42.58,8.28-25.66,18.02-49.83,29.69-72.23,3.06-5.88,5.85-12.14,8.45-18.52,6.64-16.31,6.44-32.8.14-49.3-4.63-12.11-10.84-22.28-16.87-32.7-10.25-17.71-20.58-35.31-30.56-53.36-9.46-17.1-14.84-37.05-16.09-59.43-.72-12.79-1.35-25.58-2.03-38.73h23.44c.92,8.79,1.93,17.55,2.74,26.35,2.48,26.76,9.49,50.66,19.86,72.33,10.03,20.95,20.31,41.61,30.36,62.54,3.36,7,6.48,14.29,9.42,21.71,1.76,4.43,3.15,9.25,4.38,14.1,4.04,15.93,2.68,30.86-4.51,43.99-4.27,7.8-8.89,15.24-13.76,22.18-14.48,20.62-26.22,44.27-35.12,71.26-3.99,12.09-8.31,23.94-12.41,35.95-5.27,15.43-12.32,28.58-21.21,39.48-11.13,13.64-22.33,27.15-33.27,41.13-5.57,7.12-10.82,14.9-15.9,22.83-7.12,11.11-9.31,24.27-6.19,39.35,2.57,12.43,3.54,25.18,1.99,38.08-1.04,8.64-2.21,17.3-3.89,25.69-3.77,18.81-8.35,37.25-11.75,56.21-4.23,23.63-7.51,47.65-11.36,71.44-4.44,27.5-9,54.95-13.6,82.39-5.85,34.92-8.38,70.32-6.6,106.31,1.34,26.96,4.92,53.15,12.46,77.81,13.35,43.65,35.99,69.68,66.32,81.1,15.52,5.85,31.25,6.63,47.08,4.54,14.6-1.93,29.18-4.3,43.79-6.07,15.86-1.92,31.75-1.46,47.57.69,11.09,1.5,22.15,3.92,33.15,6.63,3.89.96,7.75,3.41,11.29,6.18,6.39,5.02,8.64,13.59,5.84,23.66-2.02,7.25-4.65,14.45-7.97,20.44-7.24,13.07-14.88,25.7-22.75,37.9-18.12,28.1-35.21,57.59-51.63,88-10.04,18.59-20.31,36.9-29.91,55.99-9.62,19.13-16.27,40.64-19.2,64.57-1.4,11.47-1.52,23-.78,34.58h-11.85Z"/>
      <path d="m329.91,981.11c-2.38-38.15,6.41-71.27,20.48-101.51,9.3-19.99,19.6-38.89,29.41-58.33,17.03-33.74,36.19-64.56,55.68-94.97,7.04-10.99,13.6-22.75,20.05-34.57,3.9-7.14,6.71-15.37,7.61-24.83.87-9.17-1.16-16.38-6.17-21.55-4.74-4.89-10.19-7.3-15.71-8.64-11.28-2.75-22.62-5.14-33.97-7.09-11.38-1.96-22.79-3.84-34.21-4.6-15.62-1.03-31.27-1.42-46.9-1.25-15.33.16-30.66,2.34-46,.15-15.91-2.27-31.09-8.31-44.88-21.12-17.46-16.22-28.13-40.28-34.3-69.44-3.95-18.7-6.24-37.96-6.86-57.53-.53-16.62-.77-33.33-.3-49.95.57-20.48,3.66-40.41,7-60.26,5.41-32.18,10.52-64.49,15.59-96.8,5.02-32.03,12.82-62.53,21.55-92.53,5.51-18.92,11.34-37.63,16.42-56.82,3.37-12.73,6.27-25.9,8.28-39.26,2.55-16.86,7.63-31.1,15.58-43.17,4.9-7.44,9.71-15,14.74-22.22,8.5-12.2,15.33-26.22,20.65-42.03,3.85-11.42,7.95-22.64,11.81-34.05,9.63-28.41,23.01-51.8,40.02-70.5,5.1-5.61,10.09-11.58,14.71-18.07,10.26-14.4,13.23-32.23,8.6-52.17-2.52-10.83-5.77-21.45-9.6-31.35-8.76-22.62-17.98-44.83-27.19-67.03-13.25-31.93-21.79-66.61-26.49-103.59-.13-1.02-.25-2.05-.35-3.08-.03-.33.03-.68.07-1.24h20.88c1.71,8.82,3.58,17.6,5.1,26.53,5.88,34.62,15.36,67.02,25.83,98.84,7.51,22.84,15.05,45.67,22.34,68.68,4.03,12.73,6.46,26.2,5.76,40.57-.76,15.63-3.69,30.19-9.42,43.3-3.29,7.53-7.91,12.68-13.08,16.89-4.76,3.87-9.57,7.61-14.18,11.85-14.3,13.16-24.67,31.99-32.74,53.94-3.45,9.38-6.87,18.82-9.88,28.54-6.62,21.42-14.71,41.5-22.98,61.49-14.05,33.96-28.07,67.97-41.46,102.53-13.2,34.07-24.75,69.52-31.9,107.74-4.31,23.06-7.52,46.59-11.24,69.9-2.9,18.16-5.91,36.29-8.7,54.49-4.02,26.15-4.19,52.57-1.53,78.98,1.85,18.4,3.96,36.8,6.71,54.93,3.33,21.99,9.95,41.48,21.52,56.37,9.46,12.17,20.58,19.01,32.47,23.33,11.27,4.09,22.78,5.53,34.29,7.02,18.68,2.43,37.36,4.73,56,7.76,14.68,2.39,29.29,5.82,43.94,8.74,13.14,2.62,26.31,4.85,39.4,7.9,6.55,1.52,13.08,3.88,19.38,6.97,7.47,3.66,12.44,11.56,12.38,24.16-.03,6.2-.99,12.63-2.35,18.52-2.81,12.19-7.96,22.32-13.68,31.65-10.84,17.68-21.82,35.15-32.82,52.6-15.97,25.35-30.46,52.55-43.72,81.26-8.16,17.67-16.43,35.29-23.86,53.68-7.64,18.92-12.81,39.64-14.69,61.83-.79,9.36-.55,18.93-.77,28.41h-12.31Z"/>
      <path d="m753.77,981.11c.73-5.54,1.58-11.06,2.16-16.64,2.01-19.28,1.35-38.58-.21-57.82-6.18-76.11-21.93-147.3-46.9-213.92-7.41-19.77-13.88-40.36-20.46-60.83-2.97-9.25-4.87-19.2-5.49-29.59-.76-12.52,2.16-20.62,9.64-26.04,7.29-5.27,15.11-7.96,23.03-9.16,16.83-2.55,33.71-4.59,50.58-6.4,17.56-1.89,35.19-2.59,52.61-6.98,11.12-2.81,22.06-6.64,31.96-15.36,9.12-8.03,15.83-19.05,18.09-35.27,1.6-11.49.28-22.57-2.38-33.37-3.84-15.65-10.07-29.24-15.92-43.19-7.51-17.94-15.11-35.81-22.11-54.22-6.48-17.04-9.82-35.79-10.68-55.51-1.11-25.44-6.88-48.64-14.55-70.99-22.43-65.33-56.21-111.87-100.52-140.71-14.72-9.58-29.73-18.1-44.66-26.91-10.26-6.06-19.94-13.58-28.58-24.12-8.54-10.42-18.78-14.79-29.2-18.51-3.98-1.42-7.98-3.02-11.78-5.28-5.61-3.33-7.98-9.38-6.9-18.4.7-5.83,1.91-11.83,3.82-16.94,3.61-9.62,7.73-18.81,11.92-27.89,5.81-12.59,12.14-24.64,17.73-37.44,3.25-7.45,5.7-15.79,8.11-24,1.02-3.48,1.33-7.63,1.42-11.51.16-6.98-2.2-11.29-6.66-13-5.15-1.97-10.28-.85-15.37.62-13.6,3.94-26.49,11.31-38.92,20.24-16.53,11.88-32.74,24.79-49.09,37.24-13.17,10.03-26.5,19.69-38.61,32.58-7.71,8.21-15.04,17.26-22.63,25.73-1.22,1.36-2.95,1.66-4.44,2.44.13-2.44-.11-5.09.44-7.3,4.52-18.36,11.91-34.01,20.18-48.8,9.21-16.48,20.41-29.69,30.89-44.12,28.3-38.99,56.19-78.72,80.18-124.11,10.02-18.97,18.7-39.62,27.69-59.82,12.38-27.8,25.13-55.2,39.78-80.32,6.33-10.85,13.68-20.33,20.67-30.28,2.64-3.76,5.57-7.06,5.25-13.56h15.88c.48,6.5-.73,11.67-4.24,15.5-4.76,5.18-9.51,10.37-14.17,15.75-12.52,14.46-22.84,32.26-32.33,51.12-10.48,20.83-20.9,41.8-30.58,63.51-15.57,34.92-33.64,66.5-53.09,96.4-17.38,26.72-34.73,53.5-52.03,80.35-2.17,3.36-4.03,7.21-5.84,11.05-.53,1.11-.83,3.45-.42,4.35.45.97,1.99,1.56,2.82,1.17,5.35-2.49,10.87-4.57,15.91-8.14,15.21-10.76,30.14-22.4,45.33-33.23,17.94-12.79,36.12-24.73,55.41-32.16,7.9-3.04,15.88-5.36,24.1-3.89,1.28.23,2.56.55,3.8,1.06,7.32,2.95,10.79,10.04,10.53,21.56-.2,8.55-1.91,16.61-4.99,23.54-5.1,11.47-10.54,22.63-16.16,33.53-6.38,12.38-13.3,24.1-19.6,36.57-2.98,5.9-5.49,12.57-7.42,19.41-3.41,12.13-1.16,20.58,6.72,26.13,5.02,3.53,10.28,6.29,15.5,9.14,9.47,5.19,18.15,12.32,25.53,22.92,9.61,13.81,20.99,23.55,32.59,32.78,16.4,13.06,32.79,26.14,48.29,41.66,31.37,31.43,55.27,73.25,73.83,122.55,6.83,18.15,13.73,36.35,17.41,56.66,1.94,10.75,2.95,21.94,3.97,33.02,1.42,15.45,4.72,29.82,9.52,43.5,6.48,18.44,14.81,34.98,22.72,51.95,5.72,12.27,11.31,24.67,15.07,38.72,3.33,12.45,4.93,25.26,3.17,38.68-2.12,16.23-8.19,28.39-16.95,37.66-9.21,9.74-19.63,14.91-30.49,18.3-13.19,4.11-26.56,5.83-39.98,7.03-17.66,1.58-35.32,2.99-52.96,4.99-10.43,1.18-20.84,3.23-30.88,8.08-2.02.97-4.01,2.16-5.91,3.59-6.81,5.12-9.42,13-8.35,24.44,1.1,11.84,3.84,22.89,7.38,33.39,7.04,20.88,14.17,41.7,21.69,62.19,20.65,56.25,33.7,116.65,42.74,179.28,2.97,20.59,5.57,41.31,5.91,62.44.16,10.03-.51,20.09-.8,30.14-.03.92-.02,1.84-.04,2.77h-18.69Z"/>
      <path d="m240.12,981.11c-.33-10.97-.97-21.95-.93-32.91.1-26,4.95-50.02,14.36-71.64,5.62-12.91,11.97-25.08,17.82-37.75,2.79-6.04,5.55-12.22,7.72-18.8,4.44-13.47,2.71-22.89-5.96-29.97-6.59-5.38-13.61-9.69-20.63-13.71-15.98-9.15-31.93-18.32-46.96-30.82-13.25-11.01-25.6-23.91-36.72-39.56-15.13-21.3-24.29-47.41-27.62-78.3-3.51-32.5-7.13-64.97-10.32-97.54-1.96-20-3.06-40.2-4.79-60.26-1.71-19.84-3.95-39.58-5.55-59.43-1.57-19.4-2.77-38.87-3.89-58.34-1.06-18.32-1.89-36.67-2.68-55.02-1.33-31.11-6.07-61.36-9.46-91.98-8.25-74.65,4.04-140.36,38.75-195.13,9.95-15.69,21.18-29.5,31.92-44.01,8.42-11.38,16.76-22.87,23.43-36.81,1.7-3.55,3.31-7.23,4.73-11.04,9.9-26.63,8.9-52.87-1.42-78.67-5.37-13.44-12.35-24.89-19.27-36.45-12.28-20.52-24.76-40.79-36.61-61.87-9.8-17.43-18.06-36.58-24.28-57.69-5.24-17.79-5.8-35.67-.98-53.61,2.84-10.57,6.4-20.7,9.69-30.98.79-2.48,1.81-4.79,2.7-7.12h23.72c-.5,1.59-.89,2.78-1.26,3.98-3.34,10.77-6.88,21.4-9.92,32.36-1.49,5.38-2.25,11.3-2.98,17.08-1.88,14.82-.54,28.97,4.03,42.48,6.39,18.88,14.48,36,23.95,51.39,11.94,19.41,24.54,37.88,36.77,56.88,4.89,7.59,9.92,15.07,14.3,23.33,17.6,33.24,18.36,69.82,2.5,105.12-7.33,16.32-16.67,29.73-26.79,41.86-10.68,12.81-21.72,24.93-32.35,37.83-15.25,18.52-28.73,39.56-38.33,65.79-8.26,22.57-13.24,46.72-15.3,72.38-1.66,20.62-.19,40.89,2.6,60.97,4.26,30.64,7.47,61.51,10.42,92.49,2.53,26.54,5.93,52.89,9.11,79.28,2.41,20.04,2.56,40.29,2.83,60.54.21,15.97.23,31.96.73,47.91,1.24,39.5,5.34,78.33,12.97,116.15,3.4,16.86,7.24,33.58,11.7,49.85,9.88,36.07,27.09,61.98,49.51,80.36,18.45,15.13,38.14,24.81,58.48,31.76,9.1,3.11,18.26,5.89,27.33,9.18,3.3,1.19,6.56,3.01,9.62,5.26,5.84,4.3,7.61,11.12,4.84,20.09-1.95,6.32-4.42,12.5-7.39,17.81-7.87,14.1-16.15,27.67-24.23,41.51-8.35,14.31-16.07,29.3-21.25,46.95-6.11,20.85-8.02,42.74-6.96,65.37.21,4.49.39,8.98.58,13.47h-12.31Z"/>
      <path d="m682.22,981.11c.34-1.4.56-2.9,1.04-4.18,3.23-8.65,6.34-17.41,9.8-25.84,9.19-22.38,13.73-46.91,15.2-73.03,2.66-47.07-3.79-91.53-16.7-133.96-8.15-26.79-17.04-53.07-25.54-79.61-6.31-19.7-12.38-39.56-15.88-60.96-1.68-10.24-2.78-20.56-1.72-31.19.95-9.44,4.14-16.48,9.37-21.49,6.84-6.54,14.47-10.11,22.28-12.18,11.76-3.12,23.59-5.72,35.45-7.8,11.89-2.09,23.85-3.19,35.77-4.89,14.85-2.11,29.71-4.23,44.14-10.4,6.45-2.76,12.66-6.41,18.09-12.62,7.95-9.09,10.98-21.44,10.22-36.19-1.01-19.83-5.96-37.85-11.47-55.5-6.32-20.2-12.93-40.19-19.47-60.22-5.04-15.42-7.21-31.97-8.48-48.9-2.64-35.4-9.39-68.42-24.26-96.67-12.24-23.26-26.93-41.65-45.67-51.44-12.11-6.33-24.7-6.89-37.34-5.65-8.4.83-16.79,2.08-25.19,3.06-15.55,1.82-29.79-4.7-43.03-16.52-7.19-6.42-14.06-13.7-20.99-20.8-8.24-8.45-16.76-16.14-26.72-18.44-6.73-1.55-13.57-2-20.38-2.57-7.51-.63-14.99-1.19-22.23-4.8-8.7-4.34-15.18-12.32-18.79-25.39-.82-2.98-1.8-5.88-2.85-8.69-2.32-6.19-5.98-9.3-10.49-7.88-3.72,1.18-7.46,3.29-10.77,6.13-7.51,6.45-13.37,15.94-18.77,26.04-10.29,19.25-18.47,40.44-24.27,63.65-7.99,32.01-8.19,64.15-.36,96.36,2.14,8.79,4.17,17.65,5.94,26.62,2.21,11.23,2.47,22.56-.21,33.8-4.98,20.88-18.24,29.95-31.72,21.54-8.73-5.44-15.32-14.87-20.52-26.6-9.95-22.42-13.57-47.44-12.31-74.12,1.13-23.82,5.18-46.75,11.13-68.71,9.67-35.7,19.77-71.13,29.94-106.51,7.42-25.83,15.18-51.44,24.43-75.91,10.86-28.71,24.5-53.91,41-75.48,18.16-23.72,34.25-50.49,50.07-77.74,23.11-39.81,40.57-85.23,57.01-131.7,10.59-29.95,21.67-59.43,34.77-87.05.75-1.58,1.34-3.33,2.02-5.04h11.86c-.57,1.54-.9,2.8-1.43,3.81-17.06,32.73-30.86,68.68-44.61,104.71-9.88,25.89-19.71,51.86-31.68,75.73-16.41,32.72-34.74,62.86-54.15,91.43-9.28,13.65-19.12,26.42-28.71,39.6-15.37,21.12-27.57,46.01-37.53,73.54-11.18,30.91-20.42,63.23-29.54,95.6-7.35,26.1-14.31,52.45-21.11,78.9-3.92,15.24-6.46,31.16-7.96,47.4-2.15,23.3-.74,45.72,7.52,66.27,2.77,6.89,6.18,12.92,10.9,16.91,7.74,6.53,14.45,2.14,16.54-10.94,1.66-10.33.73-20.75.11-31.11-1.03-17.2-1.77-34.39-.46-51.65,1.57-20.54,5.56-40.01,11.15-58.74,9.85-32.98,21.48-64.35,36.96-92.06,11.54-20.66,25.03-37.54,42.01-46.79,4.28-2.33,8.99-3.43,13.55-3.85,5.32-.48,9.02,4.37,9.42,12.48.31,6.34-.32,12.88-.96,19.23-.78,7.76-2.36,15.36-2.98,23.14-1.11,13.83,2.64,23,11.37,27.04,4.88,2.26,10.1,2.98,15.19,4.02,6.09,1.25,12.26,1.64,18.3,3.24,8.42,2.22,15.99,7.87,22.99,15.29,4.3,4.56,8.56,9.21,12.88,13.74,13.6,14.29,28.85,20.72,45.18,21.95,12.13.91,24.27,1.63,36.4,2.78,22.28,2.12,41.98,14.44,59.34,35.62,20.32,24.79,35.25,55.46,42.39,93.91,2.46,13.26,4.02,27.13,4.7,40.87,1.16,23.48,6.11,44.81,13.23,65.34,7.22,20.84,14.39,41.72,21.32,62.77,3.78,11.48,6.73,23.5,8.33,36.22,2.56,20.38-2.1,35.94-14,46.1-8.6,7.34-18,11.25-27.64,13.11-14.96,2.9-29.99,4.91-45,7.15-16.14,2.4-32.33,4.3-48.44,7.05-9.24,1.58-18.38,4.49-27.15,9.51-.57.32-1.14.61-1.7.96-12.24,7.74-16.66,20.15-14.73,40.23,2.12,22.06,7.85,42.15,14.23,61.86,8.75,27.05,17.98,53.74,26.68,80.84,7.98,24.87,14.6,50.59,18.27,77.81,4.82,35.78,6.4,71.75,1.72,107.91-2.34,18.04-7.2,34.57-13.03,50.52-1.17,3.19-2.01,6.66-3,10-6.08,0-12.15,0-18.23,0Z"/>
      <path d="m717.77,981.11c.18-1.19.2-2.51.56-3.56,8.24-23.92,11.55-49.64,11.67-76.36.25-56.78-7.96-110.74-24.3-161.7-8.52-26.55-17.65-52.65-26.43-79.01-5.83-17.51-11.43-35.19-14.6-54.36-1.36-8.22-2.17-16.53-1.29-25.05.88-8.52,3.94-14.63,8.72-18.87,6.31-5.6,13.25-8.72,20.35-10.35,12.27-2.82,24.59-5.27,36.94-7.03,13.44-1.92,26.95-2.69,40.41-4.31,15.55-1.86,31.15-3.61,46.21-10.43,4.83-2.19,9.64-4.99,14.08-8.6,13.32-10.83,18.19-28.37,14.58-50.72-1.88-11.65-5.04-22.53-8.77-32.99-7.75-21.71-15.77-43.2-23.51-64.93-4.77-13.39-9.38-27.03-11.31-42.13-1.28-10.06-2.03-20.33-2.53-30.57-1.35-27.14-6.79-52.2-15.95-75.43-18.07-45.86-43.29-78.64-76.6-96.32-10.4-5.52-21.24-8.29-32.09-10.87-12.35-2.95-24.73-5.62-37.05-8.9-11.93-3.18-22.68-10.82-32.38-21.87-7.52-8.57-15.36-16.44-24.64-19.59-6.93-2.35-14.06-3.35-21.06-5.3-3.41-.95-6.85-2.2-10.04-4.21-4.96-3.13-7.78-9.32-7.29-17.52.4-6.7,1.34-13.57,2.95-19.82,2.82-10.97,6.47-21.44,9.51-32.29,1.93-6.89,3.87-13.93,4.92-21.2,2.03-13.98-2.26-21.15-11.49-18.71-6.14,1.63-12.2,4.77-18.03,8.24-15.14,9-29.87,19.34-43.34,33.46-16.4,17.2-29.3,39.49-40.18,64.61-15.92,36.73-29.8,75.15-39.8,116.56-3.03,12.57-5.11,25.66-7.76,38.45-.91,4.39-1.99,8.78-3.4,12.83-1.95,5.58-4.79,5.4-6.81-.07-2.05-5.54-2.44-11.66-2.51-17.81-.17-14.46,1.74-28.48,4.27-42.31,4.36-23.89,10.43-46.85,16.75-69.65,9.13-32.96,18.36-65.86,29.08-97.74,12.35-36.71,28.76-68.32,49.7-94.55,21.23-26.6,40.21-56.74,59.02-87.19,21.65-35.04,38.5-75.2,54.66-116.2,12.09-30.66,25.03-60.45,39.78-88.34,1.76-3.33,3.7-6.44,5.49-9.75,1.18-2.2,2.22-4.57,3.42-7.05h12.59c.39,3.53-1.04,5.7-2.38,7.82-2.96,4.66-6.09,9.06-8.96,13.84-13.05,21.75-24.28,45.65-35.05,70.04-10.33,23.4-20.11,47.36-30.46,70.73-12.58,28.42-27.76,53.59-43.67,77.65-14.44,21.84-29.36,42.97-44.23,64.14-7.82,11.13-16.26,21.24-23.93,32.6-14.39,21.32-25.15,46.69-34.09,73.94-8.17,24.88-15.17,50.52-21.25,76.73-1.51,6.52-2.56,13.29-3.68,20.01-.2,1.22.3,2.7.48,4.07.75-.62,1.76-.95,2.21-1.9,4.15-8.69,8.33-17.35,12.24-26.29,9.05-20.71,18.03-41.46,28.78-60.28,12.01-21.03,26.14-38.01,42.26-50.97,18.62-14.98,37.17-30.23,56.66-42.5,7.79-4.9,15.73-9.19,24.11-11.1,1.94-.44,3.94-.62,5.9-.47,5.89.45,8.79,5.19,8.32,14.18-.24,4.55-.8,9.32-2.01,13.45-2.35,8-5.05,15.82-8.01,23.34-4.53,11.51-9.55,22.56-14.09,34.06-3.49,8.84-6.46,18.13-7.62,28.45-1.29,11.39,1.27,18.65,8.52,21.9,5.79,2.59,11.83,3.91,17.78,5.68,7.53,2.24,14.89,5.66,20.95,12.81,14.59,17.22,31.36,26.16,49.02,32.52,15.82,5.69,31.64,11.64,46.77,20.85,45.01,27.41,77.27,74.87,95.98,143.27,4.57,16.69,6.56,34.28,7.19,52.26.66,18.87,3.87,36.76,9.85,53.21,7.35,20.19,15.18,39.98,22.88,59.87,5.51,14.22,11.4,28.15,14.86,43.97,3.22,14.74,3.73,29.28-1.98,43.06-3.82,9.21-9.41,15.26-15.74,19.9-9.18,6.73-18.99,10.03-28.97,12.37-16.06,3.77-32.27,5.03-48.47,6.38-11.13.93-22.27,1.95-33.38,3.46-13.12,1.79-26.24,3.9-38.82,10.38-2.71,1.39-5.35,3.27-7.83,5.45-5.23,4.61-7.68,11.82-7.8,20.98-.18,13.87,2.47,26.84,6.29,39.03,7.09,22.6,14.59,44.91,22.22,67.1,10.99,31.94,21.57,64.13,28.64,98.69,5.27,25.73,8.93,52,11.27,78.71,1.77,20.11,2.78,40.27,1.81,60.58-.67,14.17-2.39,27.98-5.76,41.27-.35,1.37-.45,2.87-.67,4.32-6.23,0-12.46,0-18.69,0Z"/>
      <path d="m353.61,981.11c.35-9.92.21-19.96,1.16-29.75,2.26-23.17,7.91-44.73,15.54-64.88,19.7-52.03,42.61-100.43,70.54-143.11,9.6-14.66,18.86-29.86,27.86-45.38,6.64-11.45,11.64-24.66,13.55-39.92.72-5.72.94-11.79.56-17.57-.69-10.5-4.63-17.84-10.98-22.14-6.32-4.28-13.06-6.16-19.83-7.42-35.95-6.67-71.63-15.85-107.11-26.82-17.56-5.43-35.2-10.25-52.75-15.7-8.72-2.71-17.18-6.86-25.28-12.61-13.76-9.77-23.39-25.34-28.66-47.08-1.05-4.34-1.97-8.76-2.91-13.16-2.98-13.98-5.6-28.17-8.98-41.92-7.28-29.61-8.72-59.59-4.12-90.44,4.5-30.23,8.42-60.67,13.06-90.85,5.79-37.63,16.68-72.1,29.14-105.52,10.46-28.05,23.01-53.93,35.51-79.87,4.95-10.26,9.8-20.63,14.72-30.92,7.14-14.93,13.13-30.81,17.98-47.79,5.41-18.93,11.82-37.09,20.47-53.15,7.42-13.77,16.46-23.59,28.32-26.27,6.82-1.54,11.47-7.66,14.66-16.48,9.83-27.12,16.48-55.87,18.44-86.85.84-13.27-.97-26.07-4.22-38.34-6.23-23.49-12.64-46.88-18.89-70.36-8.83-33.2-15.95-67.25-21.85-101.92-.99-5.82-2.33-11.5-3.45-17.28-.36-1.84-.53-3.77-.83-5.94h19.17c9.44,60.4,18.2,120.93,32.2,179.3,2.51,10.46,4.26,21.44,5.7,32.38,1.59,12.09.4,24.3-1.51,36.1-7,43.24-16.76,85.02-29.93,124.81-2.44,7.36-5.81,14.07-9.1,20.68-2.48,4.97-6.07,7.95-10.27,7.79-8.51-.33-14.6,6.22-19.61,15.68-3.24,6.11-6.46,12.37-9.06,19.12-8.15,21.14-18.03,40.35-27.92,59.58-13.31,25.87-26.79,51.55-38.15,79.58-12.32,30.4-23.47,61.79-29.48,96.52-4.06,23.42-6.88,47.36-9.88,71.18-1.54,12.24-2.48,24.69-3.34,37.11-1.77,25.86,3.06,48.78,13.92,68.72,3.44,6.32,7.01,12.5,10.75,18.42,6.58,10.43,11.65,22.14,14.66,35.96,3.19,14.63,8.84,26.77,17.38,35.1,5.54,5.4,11.38,10.3,17.42,14.25,17.14,11.19,35.07,18.84,53.12,25.68,17.72,6.72,35.52,13.05,53.44,18.4,13.15,3.93,26.54,5.9,39.81,8.95,7.04,1.62,14.14,3,21.02,5.65,10.66,4.11,15.69,14.66,16.1,31.46.58,23.69-4.87,44.44-14.38,62.41-7.84,14.83-16.63,28.54-25.28,42.34-15.55,24.78-31.02,49.67-43.27,78.6-11.32,26.71-22.64,53.46-31.2,82.6-5.35,18.21-9.85,36.87-11.4,56.81-.62,8.01-.5,16.16-.72,24.24h-11.85Z"/>
      <path d="m592.43,981.11c.22-1.55.31-3.18.69-4.63,4.6-17.54,12.35-31.79,20.64-45.42,8.88-14.6,19.4-26.27,29.76-38.22,9.69-11.17,17.79-24.5,23.46-41.04,7.17-20.9,8.61-43.18,6.78-66.19-2.53-31.67-10.53-60.71-18.62-89.72-6.92-24.79-13.83-49.59-20.39-74.61-3.57-13.6-5.79-27.91-6.61-42.56-.69-12.24-.32-24.37,4.89-34.73,3.8-7.56,9.06-12.12,14.65-15.91,10.07-6.82,20.68-10.98,31.48-13.77,16.76-4.34,33.61-7.88,50.4-12.03,12.25-3.03,24.56-6.07,35.98-13.85,4.8-3.27,9.54-7.35,13.58-12.4,10.02-12.52,12.61-29.61,11.35-48.49-1.21-18.02-4.93-35.02-10.09-51.13-8.63-26.9-15.76-54.56-21.22-83.36-3.85-20.3-9.76-39.36-18.63-55.94-6.52-12.19-14.36-21.26-24.84-23.96-8.23-2.12-16.09-.1-23.46,5.56-4.6,3.53-8.92,7.89-13.34,11.94-3.84,3.52-7.56,7.35-11.47,10.65-8.99,7.57-18.36,8.22-27.58,1.47-5.93-4.34-11.53-9.78-17.15-15.04-9.83-9.2-19.44-18.96-29.38-27.86-5.17-4.63-10.97-7.4-17.04-8.3-8.52-1.27-11.85,4.58-9.26,16.93,1.4,6.7,3.4,13.13,5.3,19.56,3.28,11.14,6.3,22.36,6.72,34.77.04,1.15.1,2.32.04,3.47-.49,8.88-2.9,12.22-8.73,11.55-3.09-.36-6.17-1.25-9.22-2.22-7.48-2.39-13.58.44-18.29,10.02-4.26,8.66-9.87,14.78-16.72,17.84-21.64,9.68-40.08,27.73-57.15,49.7-5.72,7.36-11.81,14.3-18.27,20.02-18.34,16.23-38.62,13.71-55.34-6.2-14.54-17.31-23.51-40.45-29.4-66.63-4.81-21.38-6.29-43.46-4.96-65.9,1.63-27.35,6.38-53.63,13.36-78.81,8.95-32.29,18.4-64.26,27.86-96.21,9.18-31.01,18.32-62.06,28.07-92.67,10.2-32.03,23.69-60.74,40.38-85.71,29.72-44.46,51.73-96.88,68.85-154.32,9.82-32.96,19.17-66.25,28.75-99.37,1.78-6.14,3.74-12.15,5.49-18.32,1.58-5.58,2.98-11.29,4.57-17.38h11.49c-.53,2.51-.84,4.8-1.48,6.83-15.39,48.48-30.55,97.13-46.32,145.32-11.25,34.36-25.77,65.61-41.64,95.4-8.15,15.3-16.92,29.71-26.33,43.22-20,28.71-35.53,62.45-46.95,100.35-16.68,55.37-32.96,111.02-49.1,166.77-6.09,21.04-10.41,43.1-12.84,65.88-4.59,43.14.28,83.14,17.56,118.78,4.81,9.93,10.46,18.66,17.21,25.58,17.06,17.48,35.45,17.52,52.45-.87,7.22-7.81,13.77-17.08,20.45-25.98,9.61-12.79,19.11-25.79,28.56-38.85,2.35-3.25,4.44-6.98,6.48-10.71,4.31-7.88,6.25-17.08,6.25-27.3,0-4.17,0-8.34.08-12.5.16-8.46,2.87-14.44,7.8-18.15,1.97-1.49,4.02-2.76,5.98-4.3,4.89-3.85,6.17-8.11,4.23-15.92-1.42-5.71-3.46-11.06-5.18-16.6-.88-2.82-1.82-5.62-2.48-8.57-2.19-9.87-.18-17.03,6.02-21.36,7.04-4.92,14.53-5.53,22.1-4.69,12.68,1.4,24.35,7.98,35.23,17.5,12.3,10.77,24.23,22.55,36.41,33.64,4.48,4.08,9.14,7.82,13.89,11.11,9.28,6.42,18.59,5.92,27.71-1.01,4.82-3.67,9.56-7.59,14.36-11.32,6.61-5.13,13.51-8.85,20.94-9.98,14.32-2.18,26.42,5.12,36.66,20.1,10.11,14.79,17.05,32.79,21.76,52.67,3.13,13.2,5.97,26.66,8.06,40.31,2.84,18.56,7.24,36.06,12.76,53.07,5.94,18.29,11.54,36.83,15.02,56.65,2.11,12.03,3.42,24.17,2.19,36.66-1.55,15.75-7.18,27.2-16.05,35.19-7.59,6.84-15.91,10.88-24.49,13.23-12.2,3.34-24.46,6.22-36.73,8.8-18.4,3.87-36.96,6.47-54.92,14.13-6.57,2.8-13.12,6.42-19.19,11.14-11.58,9.01-14.69,22.64-13.94,41.15,1.06,26.21,7.35,50.22,14.1,73.91,7.59,26.63,15.7,52.92,23.2,79.61,5.67,20.18,10.04,41.12,11.92,62.97,3.83,44.44-2.93,84.16-23.6,117.12-8.66,13.81-17.74,27.05-25.03,42.68-3.6,7.72-6.8,15.89-10.11,23.92-.45,1.09-.51,2.54-.76,3.82-9.87,0-19.75,0-29.62,0Z"/>
      <path d="m375.94,981.11c-.9-26.32,3.57-51.02,10.33-74.79,16.99-59.74,38.8-114.68,69.29-161.03,9.18-13.96,18.13-28.42,26.33-43.71,11.66-21.74,17.45-47.17,17.03-75.45-.08-5.72-.78-11.52-1.71-17.08-1.66-9.98-5.94-16.77-12.46-19.35-5.42-2.14-10.98-3.78-16.54-4.65-31.85-4.94-63.11-14.03-93.43-29.95-11.07-5.82-22.03-12.08-31.91-21.9-2.46-2.45-4.78-5.35-6.92-8.44-3.52-5.08-5.49-11.37-5.12-18.94.34-6.95-1.55-12.41-5.2-16-7.77-7.65-15.77-14.78-23.63-22.22-9.61-9.09-19.4-17.79-28.69-27.6-5.13-5.41-9.74-12.24-13.97-19.28-10.34-17.18-13.33-38.09-12.61-60.86,2.31-72.95,17.46-138.91,45.83-197.82,11.76-24.42,24.33-47.75,39.14-68.03,3.81-5.22,8.01-10.18,12.56-13.67,11.3-8.69,19.61-21.96,26.68-37.46,11.54-25.31,20.39-52.79,27.44-81.54,9.29-37.87,18.18-75.96,26.85-114.17,2.26-9.95,3.36-20.61,4.4-31.08,1.26-12.68-.3-25.18-2.63-37.36-9.55-49.76-16.12-100.48-21.36-151.66-.82-7.99-2.33-15.81-3.44-23.73-.52-3.7-.85-7.47-1.34-11.87h16.85c1.76,20.17,4.02,40.02,5.14,60.02,2.36,42.07,6.32,83.73,12.51,124.85,3.54,23.48,1.72,45.9-3.83,67.98-13.33,52.98-26.28,106.2-40.2,158.83-11.3,42.74-27.08,81.82-44.96,118.96-15.03,31.21-30.92,61.29-48.35,89.49-18.87,30.53-29.67,67.2-34.21,108.23-1.35,12.17-2.01,24.59-2.27,36.94-.57,26.19,6.17,47.69,19.02,64.94,7.63,10.23,16.01,18.77,24.85,26.29,23.98,20.42,49.35,35.9,75.72,47.25,15.25,6.56,30.85,11.27,46.29,16.83,2.14.77,4.32,1.43,6.38,2.57,1.11.62,2,2.15,2.99,3.28-.86,1.47-1.53,3.47-2.61,4.32-2.55,2.01-5.29,3.48-7.95,5.16-2.94,1.87-5.99,3.43-8.8,5.67-4.04,3.21-4.16,7.18-.55,11.36,4.62,5.35,10.03,8.15,15.47,10.73,13.77,6.53,27.96,9.72,42.27,11.99,4.45.71,8.89,1.64,13.33,2.62,9.38,2.07,14.59,10.6,16.5,24.53,1.51,11,1.69,22.09,1.28,33.18-.79,21.36-4.07,41.76-10.86,60.67-4.33,12.06-9.86,22.75-15.98,32.79-10.34,16.96-20.77,33.79-30.95,50.98-15.65,26.45-27.14,57.04-37.47,88.76-7.71,23.66-15.06,47.53-19.74,73.07-2.65,14.47-4.17,29.17-3.66,44.26.03,1.03.16,2.05.25,3.07h-11.39Z"/>
      <path d="m644.39,981.11c.39-1.49.67-3.06,1.18-4.45,5.77-15.99,12.47-31.07,20.44-44.64,19.7-33.57,26.15-73.45,24.3-117.19-1.05-24.91-5.62-48.74-12.02-71.56-7.23-25.77-15.15-51.09-22.83-76.57-6.35-21.07-12.62-42.18-16.26-64.81-1.79-11.12-3.09-22.32-2.21-33.93.98-12.96,5.44-22,12.76-28.12,8.52-7.12,17.79-11.19,27.24-13.63,14.08-3.64,28.28-6.27,42.43-9.28,15.37-3.26,30.77-6.2,46.1-9.8,7.49-1.76,14.75-5.28,21.61-10.41,13.51-10.11,19.76-27.51,18.35-50.39-1.21-19.64-5.84-37.67-10.9-55.5-2.8-9.84-5.72-19.63-8.97-29.13-6.68-19.51-10.95-40.12-13.68-61.69-3.02-23.79-7.63-46.87-15.91-67.87-4.48-11.38-9.87-21.62-16.25-30.7-15.61-22.22-33.81-28.5-54.22-20.32-6,2.4-11.95,5.52-17.6,9.41-14.12,9.74-27.78,8.6-41.08-2.94-11.28-9.79-22.32-20.23-33.57-30.1-6.71-5.88-13.48-11.66-20.47-16.68-10.18-7.32-21.07-10.33-32.31-10.3-11.78.04-23.55.63-35.19,3.68-6.38,1.67-12.35,5.11-15.9,13.93-1.83,4.54-3.24,9.82-3.88,15.04-1.47,12.05-3.67,23.58-7.41,34.49-3.22,9.39-2.61,19.09.09,28.54,2.15,7.53,4.52,14.92,6.69,22.45,3.67,12.73,3.1,25.23-1.03,37.5-5.2,15.42-12.39,28.61-20.26,40.87-5.18,8.07-10.63,16.04-16.69,22.44-14.32,15.11-29.27,14.94-44.04,1.06-11.62-10.92-19.97-26.5-26.26-44.73-8.18-23.7-11.32-49.11-10.1-75.68,1.22-26.5,5.79-51.93,12.43-76.34,8.43-31,17.35-61.7,26.3-92.36,7.36-25.21,14.93-50.3,22.69-75.23,12.39-39.78,29.39-74.23,50.58-104.38,32.24-45.88,58.27-99.19,78.29-159.16,9.26-27.73,18.13-55.77,27.38-83.5,4.13-12.37,8.79-24.32,13.17-36.5,1.27-3.53,2.4-7.17,3.68-11.02h11.37c-.42,1.63-.62,3.11-1.13,4.27-17.63,39.98-30.96,83.62-45.84,125.92-15.32,43.53-34.47,82.73-55.93,119.53-10.72,18.38-22.23,35.5-34.2,51.93-18.2,24.99-32.58,54.49-43.29,87.9-10.44,32.54-20.24,65.56-30.06,98.55-8.6,28.89-17.26,57.76-23.95,87.88-3.76,16.93-6.74,34.19-7.87,51.98-2.37,37.32,3.23,71.17,19.88,99.72,5.15,8.83,11.22,15.95,18.42,20.58,11.99,7.72,23.21,5.53,33.4-6.78,8.47-10.23,14.49-23.3,18.2-38.78,2.88-12.04,2.9-24.17-.48-35.92-2.44-8.47-5.45-16.54-8.11-24.86-1.76-5.51-3.55-11.03-4.99-16.75-4.68-18.61-4.71-37.38-.18-56.05,4.35-17.94,10.87-33.84,19.65-47.55,7.14-11.16,15.67-15.43,25.75-12.02,5.34,1.81,10.67,3.66,16.03,5.35,10.03,3.17,20.2,3.87,30.39,3.42,17.61-.78,33.53,6.61,48.19,21.38,9.12,9.19,18.49,17.82,27.94,26.19,4.57,4.05,9.52,7.21,14.44,10.26,9.27,5.75,18.87,6.63,28.65,3.57,8.33-2.61,16.62-5.63,25-7.78,28.6-7.34,51.26,8.84,69.64,41.54,12.4,22.06,19.78,47.77,23.67,75.95,1.76,12.77,3.19,25.64,4.75,38.47,1.91,15.64,6.71,29.57,11.02,43.82,6.17,20.44,12.39,40.85,18.17,61.55,3.03,10.87,4.6,22.48,4.94,34.41.58,20.48-5.32,34.87-17.34,43.64-8.78,6.4-18.14,9.92-27.69,11.88-13.29,2.73-26.65,4.64-39.95,7.14-16.37,3.08-32.76,6.1-49.08,9.76-8,1.79-15.79,5.34-23.19,10.54-11.73,8.24-16.19,20.35-14.89,41.54,1.54,24.89,7.78,47.6,14.62,69.9,7.99,26.05,16.5,51.73,24.45,77.8,7.08,23.2,12.93,47.14,16.02,72.42,3.83,31.33,3.22,62.44-2.36,93.23-2.76,15.25-7.65,28.88-13.39,41.97-5.4,12.3-10.42,25-15.56,37.56-.55,1.35-.83,2.96-1.24,4.44-6.84,0-13.67,0-20.51,0Z"/>
      <path d="m543.21,981.11c-.22-29.39,2.37-58.2,7.92-86.36.74-3.76,1.63-7.48,2.59-11.12,8.07-30.42,22.97-45.84,44.55-46.27,8.65-.17,17.33.1,25.94-.98,4.91-.62,9.87-2.85,14.5-5.56,11.92-7,18.26-21.05,20.24-39.96,2.17-20.72-.51-40.67-4.32-60.39-4.95-25.66-12.14-50.04-18.66-74.79-5.26-19.95-10.26-40.04-13.23-61.13-1.7-12.11-2.67-24.29-1.69-36.74,1.02-12.86,5.41-22.28,12.24-29.38,9.12-9.48,19.39-15.03,29.98-18.83,13.42-4.82,27-8.63,40.52-12.75,15.91-4.84,31.97-8.73,46.96-18.83,5.86-3.95,11.3-8.94,15.96-15.76,7.87-11.52,11.29-25.63,10.9-42.15-.3-12.98-2.31-25.39-5.62-37.2-8.23-29.34-16.61-58.59-25.19-87.69-3.08-10.46-7.27-20.03-12.75-28.11-8.86-13.06-19.68-16.21-30.5-7.29-6.43,5.29-12.16,12.55-18.17,18.99-4.72,5.05-9.28,10.47-14.12,15.24-7.31,7.21-15.41,11.37-24.04,13.14-3.16.65-6.34,1.23-9.45,2.22-6.34,2.01-9.89,8.11-9.86,18.01.02,5.58.91,11.2,1.71,16.7.62,4.28,1.88,8.33,2.53,12.6,1.21,7.88-.76,12.28-6.08,11.96-5.03-.3-10.18-1.36-14.99-3.59-16.47-7.62-33.36-11.73-50.33-15.61-8.45-1.93-16.82-4.8-25.17-7.66-19.37-6.63-36.77.17-52.71,17.37-8.1,8.75-16,17.94-24.26,26.35-10.15,10.33-21.33,16.33-33.71,16.1-15.13-.29-28.26-8.51-39.39-23.93-12.72-17.63-19.96-40.35-25.06-64.85-4.16-19.96-6.02-40.49-5.4-61.4.76-25.8,4.6-50.7,10.19-75.02,6.57-28.58,15.23-55.78,23.4-83.31,11-37.07,21.8-74.28,32.81-111.34,8.63-29.03,18.4-57.13,31.42-82.24,6.11-11.78,12.58-23.16,19.17-34.33,11.63-19.7,21.21-41.51,29.65-64.6,10.06-27.51,17.5-56.77,24.73-86.14,8.52-34.57,16.73-69.33,25.05-104.02.6-2.49,1.14-5.06,1.39-7.66.24-2.54,1.06-3.6,2.59-4.25,3.46-1.46,6.88-3.16,10.86-5.01-.57,3.51-.85,6.71-1.6,9.62-3.61,13.96-7.27,27.9-11.06,41.75-10.28,37.58-20.27,75.37-31.07,112.6-9.88,34.04-22.88,65.4-38.39,94.19-5.73,10.63-12.01,20.58-18.19,30.61-15.64,25.37-28.24,53.95-38.01,85.28-9.62,30.83-18.66,62.1-27.9,93.2-8,26.91-16.04,53.78-23.86,80.81-6.42,22.19-11.69,45-15.1,68.78-2.7,18.85-3.92,37.92-2.88,57.08,1.79,33.01,8.99,63.14,22.48,89.37,9.23,17.94,20.92,30.4,35.85,34.68,12.39,3.55,24.3.65,35-9.33,8.7-8.12,16.86-17.62,25.07-26.9,10.79-12.2,22.04-22.84,35.32-27.61,7.47-2.68,15.04-2.98,22.63-2.21,9.21.93,18.36.97,27.42-2.32,5.98-2.17,11.91-1.62,17.79.98,2.19.97,4.36,2.01,6.57,2.85,2.5.95,5.01,2,7.56,2.48,5.64,1.07,8.6-1.99,9.47-10.6.63-6.24.77-12.69.54-19-.42-11.78-1.38-23.52-1.88-35.3-.15-3.62.24-7.4.82-10.94.66-4.1,2.37-6,5.09-5.19,2.94.87,5.86,2.39,8.57,4.36,4.52,3.28,8.83,7.24,13.28,10.73,2.83,2.22,5.73,4.29,8.68,6.12,10.31,6.41,20.42,5.35,30.03-3.02,4.8-4.17,9.25-9.27,13.84-14,3.96-4.08,7.75-8.6,11.86-12.29,16.69-14.96,32.77-10.16,44.77,13,6.65,12.83,11.63,27.17,15.03,42.5,6.29,28.42,14.04,55.86,22.3,83.03,4.18,13.74,7.04,28.24,7.87,43.42,1.3,23.84-4.51,42.43-18.06,55.01-8.7,8.08-18.29,12.8-28.15,15.84-13.82,4.26-27.76,7.64-41.66,11.36-16.04,4.3-32.13,8.27-47.39,17.4-5.43,3.25-10.62,7.19-15.21,12.86-6.42,7.92-9.1,18.45-9.39,30.61-.5,21.24,3.11,41.4,8,60.89,6.44,25.66,13.62,50.89,20.43,76.34,5.06,18.87,9.64,37.98,12.36,58,2.2,16.2,2.93,32.5.98,48.89-2.41,20.26-9.59,35.91-20.69,47.09-5.86,5.9-12.24,10.7-18.57,15.39-9.49,7.03-19.17,13.47-28.74,20.26-11.65,8.26-19.65,21.73-24.43,39.85-4.16,15.8-6.41,32.32-8.16,49.04h-22.33Z"/>
      <path d="m507.66,981.11c-3.42-37.04-2.81-73.8,2.56-110.44,4.65-31.81,13.99-59.77,27.84-84.42,6.13-10.9,12.07-22.05,18.25-32.87,7.88-13.81,12.99-15.4,23.5-6.54,8.43,7.11,16.5,15.21,24.82,22.63,6.45,5.74,13.16,10.7,20.76,11.72,10.51,1.4,17.41-6.87,19.02-22.75,1.51-14.93.28-29.65-2.68-43.79-5.12-24.41-10.75-48.57-16.28-72.78-4.04-17.7-7.92-35.48-10.08-53.97-1.34-11.5-2.16-23.11-1.04-34.81,1.32-13.72,6.41-23.62,13.68-31.3,9.83-10.38,20.86-16.71,32.27-21.35,15.95-6.48,32.07-12.01,48.07-18.25,12.41-4.84,24.55-10.87,35.63-21.02,5.31-4.87,10.14-10.61,13.87-18.26,6.09-12.47,7.05-26.53,5.27-41.29-2.29-19.02-7.89-36.1-14.13-52.64-3.35-8.88-7.39-17.17-11.34-25.49-1.21-2.55-3.02-4.57-4.76-6.39-5.23-5.45-10.98-6.42-16.34-1.38-12.2,11.45-20.58,27.2-22.04,49.85-.31,4.84-.36,9.71-.68,14.55-.84,12.83-5.29,21.95-12.71,27.75-9.05,7.08-18.78,8.78-28.78,8.04-15.68-1.16-30.31-7.69-43.73-20.21-14.28-13.33-30.11-20.07-46.3-25.31-10.64-3.44-21.24-7.08-31.88-10.51-15.22-4.91-29.39-.57-42.37,12.17-8.28,8.12-16.2,17.08-24.41,25.38-8.45,8.54-17.53,15.01-27.64,17.56-19.91,5.03-38.04-1.65-54.34-19.64-8.94-9.86-15.2-23.13-19.88-38.19-6.49-20.91-10.14-43.01-11.88-65.96-2.43-32.08.63-63.21,6.63-93.86,5.63-28.72,14-55.74,22.1-82.94,14.41-48.35,28.58-96.86,42.86-145.3,9.52-32.26,20.78-62.96,35.21-90.81,6.16-11.88,12.59-23.46,18.34-35.78,11.73-25.16,19.58-53.29,25.45-82.66,9.18-45.91,18.03-91.98,26.95-138.02,1.07-5.51,1.73-11.2,2.61-17,3.76-.54,7.57-1.1,11.82-1.71-.6,3.83-.96,7.21-1.66,10.42-9.72,44.4-19.41,88.82-29.26,133.16-7.12,32.06-16.13,62.85-28.89,90.69-5.59,12.2-11.84,23.75-18.24,35.01-15.26,26.9-27.93,56.35-37.71,88.57-10.16,33.48-19.77,67.35-29.72,100.98-8.99,30.39-18.28,60.58-27.1,91.09-6.64,22.95-11.76,46.76-14.67,71.51-2.05,17.42-2.98,34.99-2.02,52.76,1.62,29.88,6.78,58.05,16.99,83.79,10.08,25.44,24.82,41.1,44.01,46.52,15.82,4.46,30.67-.36,44.21-13.26,8.67-8.26,16.84-17.72,25.29-26.53,8.52-8.9,17.61-15.8,28-17.97,7.46-1.56,14.84-.75,22.15,1.75,18.02,6.16,36.13,11.85,54.01,18.88,10.09,3.97,19.8,10.21,29.68,15.47,8.48,4.51,17.05,8.41,26.12,8.92,4.89.28,9.73-.12,14.31-3.12,5.41-3.55,7.59-9.7,6.29-18.43-.62-4.16-1.5-8.26-2.52-12.24-2.79-10.93-1.19-19.95,4.8-27.21,6.89-8.36,13.81-16.67,20.69-25.07,5.16-6.3,10.2-12.8,15.41-18.99,1.96-2.33,4.17-4.27,6.39-5.98,9.05-6.93,17.5-5.13,25.09,5.12,4.32,5.83,7.77,12.78,10.39,20.52,8.39,24.84,16.67,49.79,23.27,75.91,2.52,9.97,4.04,20.36,4.21,31.08.3,19.07-5.08,33.89-14.94,45.2-9.18,10.53-19.66,16.97-30.66,21.14-14.21,5.39-28.56,9.91-42.86,14.71-14.89,5-29.79,9.95-43.63,20.17-5.9,4.35-11.43,9.52-15.72,17.31-3.96,7.19-5.73,15.62-6.08,24.83-.72,19.19,1.74,37.74,5.79,55.67,5.54,24.57,11.72,48.81,17.66,73.17,4.27,17.5,8.37,35.09,10.48,53.56,1.56,13.66,2.24,27.36-.6,40.87-3.19,15.17-10.28,22.91-20.5,24.48-7.74,1.19-15.09-1.48-22.36-5.08-5.92-2.93-11.82-5.99-17.83-8.43-8.16-3.32-15.99-1.14-23.38,4.8-16.23,13.04-27.18,33.07-33.12,59.36-5.29,23.37-7.83,47.65-8.51,72.25-.46,16.84.16,33.76.3,50.64h-17.77Z"/>
      <path d="m210.95,981.11c-.6-38.28.74-76.16,9.32-112.69,1.87-7.95,3.44-16.07,4.9-24.21,2.78-15.52.4-29.3-7.58-39.7-7.77-10.13-16-19.52-24.37-28.48-17.37-18.57-34.41-37.71-49.59-60.43-8.96-13.41-17.25-27.68-24.43-43.44-8.63-18.95-13.09-39.76-12.76-62.91.19-13.08.41-26.16.35-39.24-.1-22.56-2.74-44.69-5.41-66.77-3.89-32.18-4.75-64.57-3.6-97.18,1.09-31.1,2.12-62.2,1.04-93.37-.87-25.35-3.53-50.28-7.01-75.07-3.41-24.21-6.06-48.54-5.79-73.5.73-68.69,14.05-130.45,42.64-184.12,8.57-16.08,17.01-32.35,23.77-50.44,4.09-10.95,7.21-22.45,8.33-35.05,1.4-15.8-.88-30.62-5.15-44.9-5.07-16.99-12.19-32-19.61-46.7-11.48-22.76-23.21-45.24-33.05-69.8-7.97-19.91-14.9-40.55-19.38-62.98-3.15-15.78-3.03-31.33,1.1-46.56,2.55-9.39,5.56-18.49,8.38-27.71.41-1.36.91-2.66,1.43-4.19h18.61c-.49,1.54-.82,2.78-1.25,3.91-4.62,12.02-8.71,24.39-11.42,37.76-2.6,12.8-2.57,25.45.18,38.23,4.75,22.13,12.24,42.06,20.83,61.11,10.78,23.9,23.23,45.77,35.69,67.62,7.43,13.02,14.73,26.21,20.55,41.11,4,10.24,7.04,21.04,8.18,32.92,1.56,16.24-.83,31.28-5.98,45.47-4.34,11.95-10.02,22.37-16.11,32.26-9.41,15.28-19.15,30.09-28.37,45.63-21.92,36.97-34.54,80.56-39.38,129.73-3.35,34.03-2.05,67.64,3.01,100.99,6.21,40.95,8.2,82.52,8.51,124.38.15,20.26.24,40.53.73,60.77.6,24.83,3.65,49.2,6.65,73.56,5.08,41.23,9.34,82.62,9.3,124.73-.03,34.74,9.07,63.37,24.67,88,15.17,23.94,32.43,43.65,51.33,60.07,10.81,9.4,21.97,17.89,32.83,27.17,4.88,4.17,9.7,8.75,14.06,14.06,6.97,8.5,8.66,18.25,5.5,30.99-1.82,7.32-4.42,14.2-6.73,21.23-4.27,13.03-9.07,25.73-12.77,39.12-5.89,21.27-6.99,43.95-6.74,66.81.08,7.28.35,14.55.53,21.83h-15.95Z"/>
      <path d="m163.1,981.11c.13-.88.12-1.89.41-2.63,7.24-18.75,10.64-39.39,12.12-60.71,1.18-17.01,1.93-34.15,2.14-51.25.3-25.42-4.85-48.54-15.25-68.38-7.96-15.18-16.43-29.75-25.03-44.11-15.63-26.1-31.24-52.19-44.5-81.27-3.77-8.26-7.23-16.86-10.57-25.54-5.08-13.21-8.11-27.56-8.33-42.88-.53-37.15-1.51-74.34-.87-111.45.38-22.09,3.27-44.12,5.43-66.09,2.33-23.68,5.14-47.24,6.1-71.21,1.41-35.21-1.29-69.72-6.6-103.95-4.62-29.8-7.5-60-7.5-90.73,0-63.7,9.15-123.95,28.97-180.26,4.16-11.82,8.17-23.81,11.76-36.06,10.62-36.3,10.29-72.72-.82-108.57-4.66-15.04-9.96-29.69-15.56-43.98-10.41-26.56-20.81-53.08-28.68-81.69-4.59-16.7-8.37-33.77-10.45-51.67-1.44-12.34-1.22-24.5,1.4-36.37,2.29-10.37,4.92-20.58,7.34-30.62h14.6c-.41,1.47-.72,2.6-1.05,3.72-2.24,7.72-4.61,15.37-6.71,23.18-4.4,16.35-4.69,32.97-1.59,50.01,4.31,23.73,10.79,46.06,19,67.1,7.41,18.99,15.66,37.21,23.44,55.87,6.15,14.75,12.45,29.37,18.09,44.56,4.97,13.38,8.06,27.97,8.95,43.45,1.09,18.8-1.67,36.58-7.2,53.09-5.21,15.53-11.01,30.67-17.18,45.36-13.2,31.45-23.7,64.64-29.51,101.04-5.86,36.72-8.31,74.03-5.95,111.64,1.31,20.77,3.94,41.44,6.88,61.86,5.45,37.87,7.07,76.04,5.22,114.57-1.11,23.2-2.75,46.33-4.29,69.48-1.93,29.18-1.51,58.28,1.08,87.32,2.06,23.13,2.62,46.35,2.05,69.67-.19,7.73-.02,15.52.35,23.25.77,16.36,5.04,30.88,10.72,44.54,11.31,27.17,25.22,51.05,40.57,72.95,12.69,18.12,25.93,35.35,38.8,53.18,3.87,5.36,7.48,11.2,10.93,17.19,7.5,13.03,10.75,28.43,9.71,45.62-.87,14.52-2.36,28.95-3.39,43.45-1.74,24.4-3.32,48.83-5.02,73.24-.33,4.72-.86,9.4-1.3,14.1h-28.71Z"/>
      <path d="m475.75,981.11c-.87-8.1-1.79-16.2-2.61-24.32-2.15-21.4-.71-42.51,2.51-63.41,4.26-27.66,9.21-54.97,18.37-80.04,6.49-17.77,14.09-34.39,22.55-50.03,14.23-26.3,21.9-56.54,24.43-90.14.71-9.42,1.7-18.8,2.7-28.17.29-2.71.89-5.41,1.61-7.94,1.07-3.73,2.94-4.59,4.88-1.82,2.47,3.53,4.79,7.44,6.79,11.62,9.45,19.76,18.83,39.65,30.75,56.17,5.99,8.3,12.52,15.74,19.06,23.03,2.45,2.73,5.53,4.41,8.49,5.72,6.89,3.03,11.49-1.55,12.75-12.26,1.15-9.77.42-19.5-1.26-28.88-3.88-21.66-8.09-43.19-12.26-64.73-3.36-17.37-6.42-34.88-7.32-52.97-.45-9.02-.29-18.33.65-27.25,1.5-14.21,7.73-23.99,15.1-32.11,9.8-10.81,20.89-17.67,32.22-23.62,13.61-7.14,27.34-13.72,40.93-20.97,9.39-5.01,18.67-10.64,26.87-19.46,2.81-3.03,5.16-7.08,7.65-10.77.57-.85.93-2.11,1.25-3.28,1.63-5.91-.12-9.85-4.29-9.2-2.7.42-5.41,1.33-8.01,2.57-22.24,10.61-45.16,16.53-68.03,22.73-7.25,1.96-14.55,3.5-21.83,5.11-1.64.36-3.33.32-5,.31-4.32,0-7.73-2.56-10.25-8.11-1.81-3.99-4.03-7.54-5.87-11.51-2.05-4.42-4.38-8.78-5.71-13.71-4.19-15.57-11.96-24.92-21.82-31.07-9.36-5.84-19.21-8.89-29.09-11.77-7.13-2.08-14.3-3.84-21.45-5.73-14.62-3.86-28.21.49-40.71,12.46-6.55,6.27-12.88,13.07-19.34,19.56-9.55,9.6-19.63,17.45-30.95,20.9-15.23,4.64-30.16,2.38-44.79-5.15-11.49-5.92-21.94-14.57-30.43-28.08-8.97-14.27-13.98-31.71-17.23-50.5-4.57-26.4-6.09-53.26-4.73-80.44,1.58-31.62,7-61.92,15.23-90.88,8.13-28.59,17.25-56.51,25.6-84.96,11.74-39.97,23.31-80.06,34.68-120.27,11.58-40.94,25.63-79.63,43.49-115.03,11.48-22.76,18.41-48.74,22.56-76.48,4.47-29.87,8.6-59.86,12.85-89.81,3.29-23.18,6.58-46.36,9.8-69.57.53-3.82.67-7.77.98-11.54h11.69c-.81,6.5-1.33,12.47-2.3,18.26-5.38,32.06-10.83,64.1-16.35,96.11-3.51,20.34-6.9,40.75-10.85,60.89-5.97,30.44-15.73,57.85-28.97,82.53-17.76,33.09-31.18,70.2-42.12,109.42-16.2,58.11-33.43,115.5-51.04,172.63-7.96,25.84-14.44,52.57-18.29,80.61-2.97,21.59-4.18,43.35-3.04,65.42,1.24,23.87,4.39,47.03,10.6,69.1,9.11,32.37,25.71,50.91,47.62,59.35,23.3,8.98,44.55,1.58,64.05-19.2,5.91-6.29,11.79-12.63,17.81-18.67,7.47-7.49,15.48-13.04,24.42-15.21,7.23-1.76,14.41-1.07,21.49,1.18,14.42,4.58,28.84,9.24,43.15,14.57,12.9,4.8,23.99,14.79,33.8,28.63,11.86,16.73,26.43,24.03,42.36,23.86,14.15-.15,27.88-4.8,41.11-12.61,12.29-7.25,21.27-19.74,26.4-38.47,1.46-5.33,3.08-10.62,4.99-15.59,5.09-13.22,11.59-14.42,18.27-3.09,7.43,12.59,11.76,27.53,12.66,44.46.9,17.04-4.21,29.93-12.8,39.99-9.21,10.79-19.75,17.74-30.73,22.88-14.88,6.97-29.94,13.09-44.92,19.57-12.23,5.29-24.31,11.2-35.42,20.89-5.36,4.67-10.27,10.21-14.2,17.65-4.21,8-5.98,17.25-6.25,27.27-.54,20.45,2.24,40.18,6.18,59.5,4.59,22.53,9.72,44.79,14.5,67.24,2.85,13.41,5.25,27.01,5.96,41.15.36,7.22.23,14.38-1.56,21.21-1.96,7.49-5.66,11.74-10.91,11.14-3.64-.42-7.37-1.79-10.75-3.9-8.38-5.24-15.5-13.71-22.29-22.63-8.11-10.64-15.89-21.89-23.9-32.71-2.14-2.89-4.5-5.55-6.99-7.69-3.02-2.61-5.42-1.65-7.25,2.81-1.4,3.4-2.59,7.11-3.45,10.9-4.9,21.56-10.91,42.23-20.11,60.46-2.87,5.69-5.63,11.51-8.5,17.2-16.66,33-25.84,70.66-30.53,111.36-3.09,26.84-2.7,53.46.28,80.16.27,2.39.54,4.78.81,7.17h-16.41Z"/>
      <path d="m110.23,981.11c2.34-20.28,6.52-39.68,11.68-58.69,7.96-29.37,9.87-59.54,4.2-90.43-3.1-16.86-8-32.58-14.08-47.31-9.26-22.43-18.89-44.52-28.49-66.62-10.02-23.08-20.04-46.12-28.75-70.46-6.81-19.02-10.2-39.11-10.4-60.8-.31-32.88,2.74-65.07,7.73-96.91,4.49-28.66,9.29-57.21,13.6-85.93,3.33-22.25,5.24-44.85,5.25-67.75.01-23.08-2.83-45.52-6.46-67.81-4.02-24.72-7.15-49.7-8.85-75.05-1.7-25.27-1.84-50.59-.79-75.96,2.23-53.87,10.66-105.52,23.84-155.43,11.36-43.01,10.27-85.88-.78-128.29-6.07-23.31-13.45-45.82-20.02-68.83-4.97-17.38-9.6-34.99-14.35-52.51-.25-.92-.31-2.03-.31-3.04-.01-38.56-.01-77.12,0-115.68,0-.56.04-1.12.07-1.89h9.63c-.29,1.49-.5,2.88-.84,4.2-3.32,12.94-6.32,26.01-7.25,39.95-.73,10.96.38,21.72,1.78,32.37,4.42,33.53,13.55,64.36,23.72,94.55,6.65,19.75,13.63,39.26,20.02,59.21,5.85,18.27,10.01,37.49,11.64,57.82,2.1,26.18-.87,51.16-7.5,75.32-5.29,19.29-10.92,38.39-15.78,57.94-6.73,27.1-10.81,55.26-13.29,84-2.29,26.48-3.03,53.02-2.07,79.66.97,27.06,3.92,53.7,7.88,80.1,2.68,17.9,5.66,35.77,6.39,54.15.55,13.84.71,27.77.32,41.62-.98,34.8-6.42,68.55-11.34,102.34-6.65,45.72-9.27,91.82-7.44,138.55.71,18.07,3.62,35.05,9.42,50.96,8.25,22.63,17.95,43.75,28.15,64.37,11.47,23.21,23.23,46.09,34.62,69.4,4.34,8.89,8.36,18.26,11.9,27.94,17.4,47.59,16.48,95.54.68,143.58-2.96,9-5.88,18.03-8.77,27.08-.42,1.32-.54,2.86-.8,4.3h-24.16Z"/>
      <path d="m397.82,981.11c-1.79-27.65,3.1-53.47,9.66-78.65,8.54-32.78,18.01-64.94,30.46-94.81,8.22-19.7,18.2-37.29,28.52-54.46,7.95-13.23,16.17-26.12,23.73-39.84,10.62-19.25,16.65-41.85,19.32-66.62,2.11-19.5,2.86-39.1,1.67-58.75-.48-7.99-1.63-15.96-3.03-23.72-1.49-8.27-5.39-13.53-10.75-16.09-3.19-1.53-6.46-2.66-9.62-4.27-2.07-1.05-4.15-2.34-6-4.09-2.45-2.32-3.13-5.63-1.93-9.63,1.06-3.54,2.48-6.89,3.97-10.08,6.28-13.5,12.71-26.84,18.94-40.39,1.46-3.18,2.56-6.84,3.51-10.47.86-3.3-.17-5.17-2.42-4.31-2.63,1.01-5.23,2.47-7.67,4.27-10.1,7.47-20.08,15.33-30.97,20.01-14.36,6.16-28.99,8.1-43.75,5.57-39.01-6.7-74.88-27.12-107.95-59.14-7.01-6.78-13.32-14.95-18.85-24.48-11.31-19.5-15.08-41.96-9.42-66.51,9.86-42.79,19.7-85.64,32.17-126.9,7.6-25.15,17.35-48.48,26.89-71.97,11.76-28.94,23.74-57.67,33.92-88.03,11.46-34.16,20.69-69.75,29.83-105.43,9.8-38.25,20.02-76.25,30.09-114.33,4.04-15.28,6.67-30.99,5.63-47.59-.72-11.61-1.79-23.18-2.88-34.73-2.39-25.32-4.24-50.71-4.76-76.3-.52-25.56-.64-51.17-3.5-76.49-.29-2.6-.19-5.31-.23-7.97-.02-1.02.07-2.04.1-2.92h14.34c.25,6.5.33,12.49.74,18.44,1.62,23.71.64,47.44.16,71.15-.52,25.74.54,51.37,1.87,77.01.51,9.92.86,19.86,1.14,29.8.46,16.24-1.8,31.65-6.24,46.39-7.42,24.6-15.14,49-22.05,73.93-8.22,29.64-15.7,59.76-23.53,89.65-11.67,44.59-26,87.17-41.8,128.66-10.31,27.06-20.51,54.22-28.77,82.93-9.52,33.08-15.19,67.73-18.06,103.51-1.19,14.87-1.65,29.75-.7,44.7,1.46,22.83,8.37,41.53,18.58,57.81,12.01,19.14,26.44,32.81,42.19,43.5,18.64,12.65,38.01,20.61,58.53,21.28,19.62.65,37.89-6.61,54.83-21.69,6.75-6.01,13.42-12.26,20.24-18.07,11.5-9.81,23.72-16.18,37.06-15.67,3.56.14,7.11,1.92,10.64,3.14.84.29,1.62,1.26,2.31,2.13,2.96,3.68,2.76,8.35-.51,11.23-1.3,1.15-2.73,2.04-4.16,2.76-16.24,8.25-27.27,25.27-34.88,48.04-3.25,9.71-4.05,19.71-1.67,30.25,3.51,15.52,4.27,31.72,4.38,47.95.11,15.97.07,31.97-.47,47.91-.93,27.51-3.8,54.4-12.61,79.06-5.02,14.05-11.79,26-18.75,37.83-9.83,16.71-19.68,33.44-28.99,50.81-11.22,20.92-19.25,44.82-26.22,69.59-7.03,24.99-14.15,49.91-18.3,76.49-2.36,15.09-3.39,30.33-2.19,45.81.07.91.03,1.84.04,2.77h-11.85Z"/>
      <path d="m447.04,981.11c-3.55-21.91-3.16-43.86.04-65.73,4.21-28.76,10.26-56.66,17.98-83.65,7.7-26.91,19.36-49.92,31.71-72.15,7.31-13.16,14.87-26,20.3-41.33,6.09-17.22,9.78-35.63,11.03-54.97,1.32-20.47,1.88-41.05,2.85-61.58.92-19.24,1.21-38.62,4.94-57.3.46-2.3,1.14-4.56,1.94-6.63,1.27-3.27,3.22-3.43,4.41-.12,1.48,4.14,2.78,8.5,3.74,12.97,4.38,20.32,8.76,40.62,15.48,59.54,7.14,20.11,15.7,38.57,27.28,53.35,2.65,3.38,5.65,6.36,8.78,8.56,5.02,3.52,8.26.42,8.95-7.98.76-9.21-.31-18.24-1.51-27.21-2.55-19.14-5.35-38.21-7.72-57.41-1.7-13.78-2.44-27.76-1.95-41.83.02-.69.04-1.39.05-2.08.08-8.09-.2-10.15-5.81-9.35-2.86.41-5.27-1.65-6.22-5.64-1.26-5.26-2.33-10.78-2.74-16.32-.85-11.63.87-23.03,1.98-34.48,1.22-12.59,2.33-25.2,3.37-37.83.81-9.75-1.6-17.41-6.89-23-5.46-5.76-11.65-8.73-18.02-10.99-11.19-3.96-22.55-5.82-33.99-6.68-12.01-.9-23.18,3.72-33.5,12.9-8.19,7.28-16.15,15.15-24.35,22.4-14.57,12.89-30.32,19.37-47.19,18.04-22.93-1.81-44.03-11.98-62.32-33.83-13.64-16.3-21.5-37.94-24.68-63.67-3.02-24.4-3.03-48.97-1.54-73.63,2.27-37.56,10.06-72.69,20.45-106.53,8.99-29.26,19.02-57.77,27.85-87.13,10.53-35,20.62-70.32,30.25-105.91,12.37-45.7,26.42-89.95,44.52-131.09,7.97-18.11,12.01-38.5,13.73-59.92,2.15-26.63,3.75-53.37,5.98-79.98,1.51-18.01,3.9-35.84,5.5-53.83,1.27-14.32,1.93-28.76,2.85-43.15.08-1.25.1-2.51.16-4.14,3.98.63,7.78,1.24,11.98,1.9-.22,4.19-.21,8.45-.7,12.59-2.98,25.47-6.15,50.88-9.1,76.36-2.46,21.27-4.85,42.56-7.04,63.9-2.67,26.06-5.61,52.06-14.28,75.32-4.93,13.22-10.75,25.68-16.32,38.32-13.54,30.75-24.18,63.82-33.38,97.98-15.82,58.74-33.01,116.51-51.57,173.35-8.37,25.64-15.51,52.13-20.41,79.89-4.81,27.28-6.98,54.96-5.93,83.24.67,18.18,2.18,36.08,5.75,53.5,6.5,31.68,20.43,52.82,40.16,65.71,14.11,9.22,28.81,14.04,44.18,13.15,15.04-.87,28.72-8.43,41.38-20.56,7.89-7.56,15.62-15.54,23.63-22.8,9.39-8.52,19.69-12.8,30.62-11.88,7.24.61,14.5,2.01,21.63,4.04,9.41,2.68,18.77,5.92,28,9.76,4.01,1.67,7.8,5.04,11.4,8.37,5.81,5.38,8.86,13.59,9.48,24.01.43,7.37,1.36,14.67,1.67,22.05.28,6.67.22,13.41-.07,20.08-.52,12.25,1.84,15.85,9.63,12.96,9.5-3.52,18.84-8.14,28.38-11.35,7.83-2.63,15.85-4.04,23.81-5.62,2.13-.42,4.37.5,6.84.84-.93,4.68-3.02,6.12-4.89,7.59-7.29,5.7-14.66,11.13-21.97,16.77-8.28,6.4-16.2,13.59-23.04,23.33-9.7,13.8-12.77,30.97-11.94,50.61,1.24,29.14,7.1,56.71,11.73,84.74,2.01,12.16,3.26,24.62,4.57,37.01.37,3.54,0,7.43-.51,11-1.05,7.23-4.33,10.38-9,8.35-2.88-1.25-5.72-3.23-8.25-5.68-9.67-9.34-17.42-21.9-24.72-35.15-11.02-19.99-19.19-42.68-26.9-65.82-1.4-4.21-2.97-8.36-4.79-12.16-2.07-4.31-4.3-3.81-5.1,1.35-1.24,7.95-2.27,16.05-2.78,24.18-1.14,18.3-1.67,36.7-2.89,54.98-2.19,32.85-10.15,62.03-24.29,87.33-10.84,19.4-20.93,39.68-28.87,62.26-7.54,21.45-12.1,44.58-16.5,67.8-2.98,15.69-5.27,31.57-6.03,47.94-.76,16.27,1,32.05,3.34,47.77h-14.58Z"/>
      <path d="m421.06,981.11c-.16-3.21-.28-6.44-.49-9.64-1.33-20.65,1.24-40.57,5.15-60.12,5.51-27.54,12.46-54.27,20.49-80.32,8.48-27.49,20.75-51.01,33.82-73.66,7.42-12.85,15.05-25.47,21.91-39,9.34-18.43,14.22-39.94,16.7-62.81,2.18-20.12,2.76-40.42,3.19-60.75.52-24.52,1.1-49.05,1.85-73.55.31-10.04,1.08-20.06,3.55-29.55,1.87-7.2,4.46-13.7,8.32-18.81,1.48-1.95,3.12-3.75,4.87-5.05,5.11-3.78,9.27-1.7,11.74,6.11,1.51,4.77,2.51,9.92,3.76,14.88.44,1.72.88,3.45,1.45,5.07.29.82,1.09,2.12,1.28,1.99.68-.49,1.4-1.35,1.73-2.35.57-1.74.93-3.67,1.28-5.56,2.73-14.78,5.44-29.57,8.13-44.37.32-1.77.57-3.6.71-5.43.62-8.01-1.48-13.9-6.06-17.87-5.2-4.51-10.91-6.13-16.75-6.84-19.72-2.39-37.82,5.07-54.74,20.45-7.29,6.62-14.79,12.78-22.47,18.27-15.91,11.37-32.77,14.57-50.18,12.11-27.48-3.89-52-19.04-73.52-45.29-10.7-13.05-19.6-28.32-23.93-48.75-2.52-11.87-3.71-24.1-3.85-36.5-.52-45.64,4.88-89.7,17.12-131.33,7.74-26.35,16.3-52.22,25.45-77.51,18.46-51.08,34.33-103.91,48.05-158.29,10.82-42.9,22.97-84.87,37.72-124.98,8.15-22.15,10.3-45.89,10.05-70.78-.26-26.73-.17-53.48.26-80.21.25-15.36,1.71-30.66,2.18-46.02.39-12.7.15-25.45.18-38.18,0-3.45,0-6.9,0-10.56,3.96.9,7.8,1.67,11.61,2.76.57.16,1.38,1.85,1.35,2.78-.48,16.05-.77,32.14-1.71,48.14-1.47,25.2-3.64,50.3-5.05,75.51-1.01,18.09-1.13,36.29-1.91,54.42-.89,20.8-3.54,41-10.85,59.03-19.01,46.89-33.74,96.92-46.82,148.15-13.6,53.27-30.24,104.36-47.63,154.94-9.61,27.93-18.31,56.52-24.25,86.86-3.64,18.59-6,37.55-7.2,56.88-1.07,17.22-1.2,34.43-.31,51.65,1.86,36.07,13.02,63.77,32.56,84.01,14.63,15.15,30.71,24.61,48.07,29.28,9.76,2.63,19.58,3.57,29.45,1.91,12.26-2.06,23.8-7.78,34.6-16.79,8.38-6.99,16.57-14.47,24.95-21.45,10.31-8.6,21.41-12.53,33.18-12.43,11.02.1,21.96.91,32.63,5.62,1.95.86,3.89,1.91,5.74,3.19,9.38,6.47,11.88,14.75,9.7,30.09-2.06,14.53-4.22,29.08-5.55,43.78-2.81,31.09-.64,61.31,7.72,90.36,2.7,9.4,4.73,19.29,6.63,29.16.92,4.8,1.15,10.06,1.1,15.09-.07,6.58-2.69,8.56-6.45,5.24-4.56-4.02-7.91-10.06-11.01-16.39-8.47-17.31-13.75-36.9-17.26-57.62-2.23-13.16-3.94-26.53-6.04-39.75-.62-3.89-1.56-7.76-2.77-11.3-1.63-4.75-4.56-5.35-6.5-.93-2.16,4.91-4.23,10.36-5.12,16.01-1.84,11.74-3.47,23.69-4.13,35.69-1.33,24.3-1.91,48.7-2.9,73.04-.82,20.04-1.93,40.04-5.55,59.48-4.26,22.91-12.25,42.53-22.63,60.14-10.86,18.43-21.44,37.2-30.56,57.78-9.98,22.53-16.4,47.54-22.31,72.94-4.38,18.82-8.49,37.76-10.68,57.53-1.76,15.88-2,31.74-.04,47.62.11.91.14,1.84.21,2.75h-13.22Z"/>
      <path d="m954.77,267.53c-3-8.79-7.94-14.21-13.47-18.95-9.05-7.76-18.28-15.26-26.78-24.29-15.02-15.96-22.44-38.38-21.79-66.57.15-6.59.2-13.23.75-19.75,4.5-53.24,5.32-106.9,7.8-160.36.98-21.23-.33-42.38-2.36-63.37-3.54-36.62-3.41-73.08.43-109.66,4.05-38.57,5.37-77.58,7.19-116.5,1.48-31.63,3.71-63.17,5.61-94.75.03-.46.11-.9.19-1.59h13.48c.03.87.12,1.75.07,2.62-2.13,36.53-1.93,73.13-.93,109.69,2.26,82.78,1.62,165.56.56,248.34-.3,23.59-2.01,47.14-2.7,70.73-.65,22.32-.79,44.68-1.2,67.01-.36,19.33-1.02,38.65-1.11,57.98-.05,11.07.29,22.26,1.35,33.19,1.58,16.2,7.47,28.9,15.86,38.88,5.6,6.66,11.35,13.05,17.03,19.56v27.79Z"/>
      <path d="m954.77,213.34c-6.76-14.63-11.35-30.61-12.22-48.6-.66-13.73-1.27-27.5-1.25-41.25.06-35.99.1-72,.89-107.96.5-22.76,2.43-45.44,3.54-68.17,2.85-58.26,3.41-116.54.38-174.84-1.88-36.11-4.11-72.19-5.59-108.34-.93-22.73-.79-45.56-1.12-68.35-.02-1.36.12-2.73.2-4.35h15.17V213.34Z"/>
      <path d="m954.77,328.68c-1.61-6.07-3.49-12.02-4.76-18.25-1.09-5.31-.4-10.8.98-15.96,1.22-4.6,2.52-9.16,3.79-13.73v47.94Z"/>
      <path d="m43.23,118.31v-3.8c0-30.69-.01-61.37.03-92.06,0-2.05.24-4.14.58-6.13,4.18-24.83,8.65-49.55,12.53-74.49,4.49-28.93,3.36-57.88-1.1-86.65-2.93-18.92-6.88-37.34-11.64-55.37-.19-.73-.37-1.54-.37-2.32-.02-13.99-.02-27.99-.02-42.79.52,1.12.82,1.57.97,2.11,6.76,25.1,13.94,49.96,20.15,75.38,6.32,25.87,9.59,52.77,8.55,80.62-.65,17.47-3.49,34.21-7.05,50.72-6.69,30.96-12.04,62.43-15.66,94.57-2.26,20.03-4.42,40.09-6.63,60.14-.11.02-.22.04-.33.07Z"/>
      <path d="m43.23,486.39c0-7.37.21-14.75-.05-22.09-.47-13.39.78-26.25,3.33-39.13,3.91-19.71,6.27-39.98,7.13-60.56.99-23.85-1.64-46.82-7.96-68.69-1.82-6.3-2.57-12.57-2.52-19.44.17-22.69.06-45.39.06-68.08v-3.25c2.13,13.3,4.14,27.5,6.72,41.44,3.04,16.45,6.79,32.59,9.86,49.03,3.74,20.02,4.21,40.58,3.22,61.23-1.82,37.78-8.72,73.93-15.48,110.11-1.22,6.53-2.45,13.05-3.68,19.57-.22-.04-.43-.09-.65-.13Z"/>
    </g>
  </g>
  <g>
    <g>
      <rect class="cls-3" x="35.21" y="269.66" width="3.09" height="184.3"/>
      <rect class="cls-3" x="35.21" y="60.12" width="3.09" height="188.09"/>
      <rect class="cls-3" x="506.31" y="463.79" width="428.82" height="2.65"/>
      <rect class="cls-3" x="50.89" y="463.79" width="428.5" height="2.65"/>
      <path class="cls-3" d="m960.43,453.95v21.72h-25.32v-21.72h25.32Zm-3.09,19.07v-16.42h-19.14v16.42h19.14Z"/>
      <path class="cls-3" d="m50.89,453.95v21.72h-25.32v-21.72h25.32Zm-3.09,19.07v-16.42h-19.14v16.42h19.14Z"/>
      <path class="cls-3" d="m50.89,40.32v21.72h-25.32v-21.72h25.32Zm-3.09,19.07v-16.42h-19.14v16.42h19.14Z"/>
      <path class="cls-3" d="m505.66,453.95v21.72h-25.32v-21.72h25.32Zm-3.09,19.07v-16.42h-19.14v16.42h19.14Z"/>
      <path class="cls-3" d="m50.89,247.96v21.72h-25.32v-21.72s25.32,0,25.32,0Zm-3.09,19.07v-16.42h-19.14v16.42h19.14Z"/>
    </g>
    <g>
      <rect class="cls-3" x="947.7" y="62.05" width="3.09" height="184.3"/>
      <rect class="cls-3" x="947.7" y="267.79" width="3.09" height="188.09"/>
      <rect class="cls-3" x="50.57" y="49.56" width="429.12" height="2.65"/>
      <rect class="cls-3" x="506.61" y="49.56" width="428.5" height="2.65"/>
      <path class="cls-3" d="m935.11,62.05v-21.72h25.32v21.72h-25.32Zm3.09-19.07v16.42h19.14v-16.42h-19.14Z"/>
      <path class="cls-3" d="m480.34,62.05v-21.72h25.32v21.72h-25.32Zm3.09-19.07v16.42h19.14v-16.42h-19.14Z"/>
      <path class="cls-3" d="m935.11,268.04v-21.72h25.32v21.72s-25.32,0-25.32,0Zm3.09-19.07v16.42h19.14v-16.42h-19.14Z"/>
    </g>
  </g>
</svg>